%TF.GenerationSoftware,KiCad,Pcbnew,10.0.1*%
%TF.CreationDate,2026-05-04T12:08:32-06:00*%
%TF.ProjectId,2026_12_2Wheel_Balance_Robot_v1,32303236-5f31-4325-9f32-576865656c5f,rev?*%
%TF.SameCoordinates,Original*%
%TF.FileFunction,Copper,L2,Bot*%
%TF.FilePolarity,Positive*%
%FSLAX46Y46*%
G04 Gerber Fmt 4.6, Leading zero omitted, Abs format (unit mm)*
G04 Created by KiCad (PCBNEW 10.0.1) date 2026-05-04 12:08:32*
%MOMM*%
%LPD*%
G01*
G04 APERTURE LIST*
G04 Aperture macros list*
%AMRoundRect*
0 Rectangle with rounded corners*
0 $1 Rounding radius*
0 $2 $3 $4 $5 $6 $7 $8 $9 X,Y pos of 4 corners*
0 Add a 4 corners polygon primitive as box body*
4,1,4,$2,$3,$4,$5,$6,$7,$8,$9,$2,$3,0*
0 Add four circle primitives for the rounded corners*
1,1,$1+$1,$2,$3*
1,1,$1+$1,$4,$5*
1,1,$1+$1,$6,$7*
1,1,$1+$1,$8,$9*
0 Add four rect primitives between the rounded corners*
20,1,$1+$1,$2,$3,$4,$5,0*
20,1,$1+$1,$4,$5,$6,$7,0*
20,1,$1+$1,$6,$7,$8,$9,0*
20,1,$1+$1,$8,$9,$2,$3,0*%
G04 Aperture macros list end*
%TA.AperFunction,ComponentPad*%
%ADD10R,1.700000X1.700000*%
%TD*%
%TA.AperFunction,ComponentPad*%
%ADD11C,1.700000*%
%TD*%
%TA.AperFunction,ComponentPad*%
%ADD12RoundRect,0.250000X-0.600000X-0.750000X0.600000X-0.750000X0.600000X0.750000X-0.600000X0.750000X0*%
%TD*%
%TA.AperFunction,ComponentPad*%
%ADD13O,1.700000X2.000000*%
%TD*%
%TA.AperFunction,ComponentPad*%
%ADD14RoundRect,0.250000X0.600000X0.750000X-0.600000X0.750000X-0.600000X-0.750000X0.600000X-0.750000X0*%
%TD*%
%TA.AperFunction,ComponentPad*%
%ADD15RoundRect,0.250000X-0.600000X-0.725000X0.600000X-0.725000X0.600000X0.725000X-0.600000X0.725000X0*%
%TD*%
%TA.AperFunction,ComponentPad*%
%ADD16O,1.700000X1.950000*%
%TD*%
%TA.AperFunction,ComponentPad*%
%ADD17O,2.100000X1.000000*%
%TD*%
%TA.AperFunction,ComponentPad*%
%ADD18O,1.600000X1.000000*%
%TD*%
%TA.AperFunction,ComponentPad*%
%ADD19RoundRect,0.250000X0.600000X0.725000X-0.600000X0.725000X-0.600000X-0.725000X0.600000X-0.725000X0*%
%TD*%
%TA.AperFunction,ViaPad*%
%ADD20C,0.600000*%
%TD*%
%TA.AperFunction,Conductor*%
%ADD21C,0.203200*%
%TD*%
%TA.AperFunction,Conductor*%
%ADD22C,0.254000*%
%TD*%
G04 APERTURE END LIST*
D10*
%TO.P,J4,1,Pin_1_1*%
%TO.N,GND*%
X105403700Y-76835000D03*
D11*
%TO.P,J4,2,Pin_2_2*%
%TO.N,/ESP_TX*%
X107943700Y-76835000D03*
%TO.P,J4,3,Pin_3_3*%
%TO.N,unconnected-(J4-Pin_3-Pad3)*%
X105403700Y-74295000D03*
%TO.P,J4,4,Pin_4_4*%
%TO.N,+3.3V*%
X107943700Y-74295000D03*
%TO.P,J4,5,Pin_5_5*%
%TO.N,Net-(J4-Pin_5)*%
X105403700Y-71755000D03*
%TO.P,J4,6,Pin_6_6*%
%TO.N,+3.3V*%
X107943700Y-71755000D03*
%TO.P,J4,7,Pin_7_7*%
%TO.N,/ESP_RX*%
X105403700Y-69215000D03*
%TO.P,J4,8,Pin_8_8*%
%TO.N,+3.3V*%
X107943700Y-69215000D03*
%TD*%
D12*
%TO.P,J7,1,Pin_1_1*%
%TO.N,/MD_BO1*%
X158794500Y-60731400D03*
D13*
%TO.P,J7,2,Pin_2_2*%
%TO.N,/MD_BO2*%
X161294500Y-60731400D03*
%TD*%
D10*
%TO.P,J1,1,Pin_1_1*%
%TO.N,+3.3V*%
X103397100Y-106400600D03*
D11*
%TO.P,J1,2,Pin_2_2*%
%TO.N,/SWCLK*%
X103397100Y-103860600D03*
%TO.P,J1,3,Pin_3_3*%
%TO.N,GND*%
X103397100Y-101320600D03*
%TO.P,J1,4,Pin_4_4*%
%TO.N,/SWDIO*%
X103397100Y-98780600D03*
%TD*%
D14*
%TO.P,J5,1,Pin_1_1*%
%TO.N,VM*%
X150499500Y-61442600D03*
D13*
%TO.P,J5,2,Pin_2_2*%
%TO.N,GND*%
X147999500Y-61442600D03*
%TD*%
D12*
%TO.P,J6,1,Pin_1_1*%
%TO.N,/MD_AO1*%
X158916100Y-104961200D03*
D13*
%TO.P,J6,2,Pin_2_2*%
%TO.N,/MD_AO2*%
X161416100Y-104961200D03*
%TD*%
D15*
%TO.P,J9,1,Pin_1_1*%
%TO.N,+3.3V*%
X113337043Y-65425082D03*
D16*
%TO.P,J9,2,Pin_2_2*%
%TO.N,GND*%
X115837043Y-65425082D03*
%TO.P,J9,3,Pin_3_3*%
%TO.N,/MT_PWM*%
X118337043Y-65425082D03*
%TO.P,J9,4,Pin_4_4*%
%TO.N,/MT_SCL*%
X120837043Y-65425082D03*
%TO.P,J9,5,Pin_5_5*%
%TO.N,/MT_SDA*%
X123337043Y-65425082D03*
%TD*%
D17*
%TO.P,J3,SH,SHIELD_SH*%
%TO.N,GND*%
X106875900Y-85664400D03*
D18*
X102695900Y-85664400D03*
D17*
X106875900Y-94304400D03*
D18*
X102695900Y-94304400D03*
%TD*%
D10*
%TO.P,J2,1,Pin_1_1*%
%TO.N,+5V*%
X134512100Y-107365800D03*
D11*
%TO.P,J2,2,Pin_2_2*%
%TO.N,GND*%
X137052100Y-107365800D03*
%TO.P,J2,3,Pin_3_3*%
%TO.N,/IMU_SCL*%
X139592100Y-107365800D03*
%TO.P,J2,4,Pin_4_4*%
%TO.N,/IMU_SDA*%
X142132100Y-107365800D03*
%TO.P,J2,5,Pin_5_5*%
%TO.N,unconnected-(J2-Pin_5-Pad5)*%
X144672100Y-107365800D03*
%TO.P,J2,6,Pin_6_6*%
%TO.N,unconnected-(J2-Pin_6-Pad6)*%
X147212100Y-107365800D03*
%TO.P,J2,7,Pin_7_7*%
%TO.N,unconnected-(J2-Pin_7-Pad7)*%
X149752100Y-107365800D03*
%TO.P,J2,8,Pin_8_8*%
%TO.N,/IMU_INT*%
X152292100Y-107365800D03*
%TD*%
D19*
%TO.P,J8,1,Pin_1_1*%
%TO.N,+3.3V*%
X116753700Y-102412800D03*
D16*
%TO.P,J8,2,Pin_2_2*%
%TO.N,/ENC_A*%
X114253700Y-102412800D03*
%TO.P,J8,3,Pin_3_3*%
%TO.N,/ENC_B*%
X111753700Y-102412800D03*
%TO.P,J8,4,Pin_4_4*%
%TO.N,GND*%
X109253700Y-102412800D03*
%TD*%
D20*
%TO.N,/OSCIN*%
X137369300Y-90566800D03*
X138572500Y-90566800D03*
%TO.N,/OSCOUT*%
X138572500Y-89066800D03*
X137369300Y-89668400D03*
%TO.N,/WS_DIN*%
X146197096Y-85942204D03*
X144869300Y-86066800D03*
%TO.N,GND*%
X159970900Y-80566800D03*
X162970900Y-87066800D03*
X120970900Y-80066800D03*
X120470900Y-74566800D03*
X141470900Y-73066800D03*
X138470900Y-88066800D03*
X132970900Y-84066800D03*
X109970900Y-90066800D03*
X142470900Y-64566800D03*
X141970900Y-66566800D03*
X137470900Y-57566800D03*
X102970900Y-93066800D03*
X137970900Y-66566800D03*
X137970900Y-64566800D03*
X144970900Y-87066800D03*
X126470900Y-83566800D03*
X149970900Y-86566800D03*
X108470900Y-95066800D03*
X112970900Y-94066800D03*
X123970900Y-72566800D03*
X122470900Y-94215000D03*
X103970900Y-102566800D03*
X149970900Y-94066800D03*
X127970900Y-83566800D03*
X113470900Y-86066800D03*
X138470900Y-106566800D03*
X109970900Y-101066800D03*
X108970900Y-86566800D03*
X142470900Y-57566800D03*
X141470900Y-85566800D03*
X142470900Y-101710000D03*
X125470900Y-91066800D03*
X159970900Y-76566800D03*
X162970900Y-82566800D03*
X120970900Y-78066800D03*
X114970900Y-67066800D03*
X133470900Y-86066800D03*
X156470900Y-77566800D03*
X158470900Y-83066800D03*
X114470900Y-81566800D03*
X105470900Y-86566800D03*
X103470900Y-86566800D03*
X136470900Y-79066800D03*
X103970900Y-76066800D03*
X143470900Y-92066800D03*
X126470900Y-60066800D03*
X134470900Y-100566800D03*
X159970900Y-79566800D03*
X134470900Y-64566800D03*
X138970900Y-92066800D03*
X138970900Y-73066800D03*
X146470900Y-62066800D03*
X108970900Y-93066800D03*
X146470900Y-98066800D03*
X134970900Y-73066800D03*
X159970900Y-75566800D03*
X122470900Y-103566800D03*
X132470900Y-92066800D03*
X124970900Y-77066800D03*
%TO.N,+3.3V*%
X144359004Y-72178696D03*
X146270903Y-73693800D03*
X146252837Y-77127755D03*
X132970900Y-77668400D03*
X134120360Y-95417340D03*
X146219374Y-75473026D03*
X128970900Y-77066800D03*
X132970900Y-75939800D03*
X132777544Y-96760156D03*
X128970900Y-75812800D03*
%TO.N,Vusb*%
X109970900Y-84000305D03*
X110470900Y-85203505D03*
%TO.N,VM*%
X157295504Y-80742196D03*
X157646296Y-79391404D03*
%TO.N,+5V*%
X145470900Y-73693800D03*
X146470900Y-66066800D03*
X145470900Y-76958700D03*
X147763034Y-66066800D03*
X145470900Y-85186000D03*
X145244704Y-82942204D03*
X145470900Y-75755500D03*
X145470900Y-72439800D03*
%TO.N,/USER_LED*%
X127970900Y-77193800D03*
X127643115Y-78792184D03*
X128181043Y-75939800D03*
X127482100Y-77512008D03*
%TO.N,/ESP_RX*%
X116870894Y-77193800D03*
X116934186Y-75939800D03*
%TO.N,/MD_PWMB*%
X144470900Y-75755500D03*
X144869300Y-74566800D03*
X146970900Y-74566800D03*
X131569700Y-80884401D03*
X133970900Y-81066800D03*
X142970900Y-78668400D03*
X144470900Y-76958700D03*
X142970900Y-77465200D03*
%TO.N,/MD_BIN1*%
X146572500Y-78066800D03*
X133517400Y-78566800D03*
X144869300Y-78066800D03*
X132314200Y-78566800D03*
%TO.N,/MD_STBY*%
X130470900Y-84770000D03*
X144869300Y-80566800D03*
X143470900Y-81557800D03*
X147970900Y-78355500D03*
X143470900Y-82761000D03*
X130596840Y-83566800D03*
X146072500Y-80566800D03*
X147470900Y-79566800D03*
%TO.N,/MD_AIN1*%
X144869300Y-82066800D03*
X146072500Y-82066800D03*
%TO.N,/IMU_INT*%
X138970900Y-102939800D03*
X139970900Y-104193800D03*
%TO.N,/MT_PWM*%
X122572500Y-86066800D03*
X120869300Y-85066800D03*
X118470900Y-69465200D03*
X117670897Y-75566800D03*
X118470900Y-70668400D03*
X117670897Y-77066800D03*
%TO.N,/MT_SDA*%
X121470900Y-69465200D03*
X119470900Y-75812800D03*
X121369300Y-70668400D03*
X119470900Y-77066800D03*
%TO.N,/MT_SCL*%
X120470900Y-69465200D03*
X118470900Y-75566800D03*
X120470900Y-70668400D03*
X118470900Y-77066800D03*
%TO.N,/SWCLK*%
X118361192Y-95825718D03*
X119247894Y-96640597D03*
%TO.N,/ENC_B*%
X118646296Y-97242196D03*
X117795504Y-96391404D03*
%TO.N,/ENC_A*%
X117355300Y-98761119D03*
X115970900Y-98668400D03*
%TO.N,/IMU_SCL*%
X137470900Y-104193800D03*
X136470900Y-103066800D03*
%TO.N,/IMU_SDA*%
X138970900Y-104193800D03*
X137970900Y-102939800D03*
%TD*%
%TO.N,/OSCIN*%
D21*
X137369300Y-90566800D02*
X138572500Y-90566800D01*
%TO.N,/OSCOUT*%
X137970900Y-89668400D02*
X138572500Y-89066800D01*
X137369300Y-89668400D02*
X137970900Y-89668400D01*
%TO.N,/WS_DIN*%
X146072500Y-86066800D02*
X146197096Y-85942204D01*
X144869300Y-86066800D02*
X146072500Y-86066800D01*
%TO.N,+3.3V*%
X145720091Y-71838200D02*
X144699500Y-71838200D01*
X146252837Y-75506489D02*
X146219374Y-75473026D01*
X134120360Y-95417340D02*
X132777544Y-96760156D01*
X128970900Y-77066800D02*
X128970900Y-75812800D01*
X144699500Y-71838200D02*
X144359004Y-72178696D01*
X132970900Y-77668400D02*
X132970900Y-75939800D01*
X146270903Y-72389012D02*
X145720091Y-71838200D01*
X146252837Y-77127755D02*
X146252837Y-75506489D01*
X146270903Y-73693800D02*
X146270903Y-72389012D01*
%TO.N,Vusb*%
X110470900Y-85203505D02*
X110470900Y-84500305D01*
X110470900Y-84500305D02*
X109970900Y-84000305D01*
%TO.N,VM*%
X157295504Y-79742196D02*
X157646296Y-79391404D01*
X157295504Y-80742196D02*
X157295504Y-79742196D01*
%TO.N,+5V*%
D22*
X147763034Y-66066800D02*
X146470900Y-66066800D01*
D21*
X145470900Y-85186000D02*
X145470900Y-83168400D01*
X145470900Y-73693800D02*
X145470900Y-72439800D01*
X145470900Y-83168400D02*
X145244704Y-82942204D01*
X145470900Y-76958700D02*
X145470900Y-75755500D01*
%TO.N,/USER_LED*%
X127643115Y-78792184D02*
X127643115Y-77673023D01*
X127970900Y-76149943D02*
X128181043Y-75939800D01*
X127643115Y-77673023D02*
X127482100Y-77512008D01*
X127970900Y-77193800D02*
X127970900Y-76149943D01*
%TO.N,/ESP_RX*%
X116934186Y-75939800D02*
X116934186Y-77130508D01*
X116934186Y-77130508D02*
X116870894Y-77193800D01*
%TO.N,/MD_PWMB*%
X146970900Y-74566800D02*
X144869300Y-74566800D01*
X142970900Y-77465200D02*
X142970900Y-78668400D01*
X133970900Y-81066800D02*
X131752099Y-81066800D01*
X131752099Y-81066800D02*
X131569700Y-80884401D01*
X144470900Y-75755500D02*
X144470900Y-76958700D01*
%TO.N,/MD_BIN1*%
X133517400Y-78566800D02*
X132314200Y-78566800D01*
X146572500Y-78066800D02*
X144869300Y-78066800D01*
%TO.N,/MD_STBY*%
X146072500Y-80566800D02*
X144869300Y-80566800D01*
X130470900Y-83692740D02*
X130596840Y-83566800D01*
X147970900Y-79066800D02*
X147470900Y-79566800D01*
X147970900Y-78355500D02*
X147970900Y-79066800D01*
X143470900Y-81557800D02*
X143470900Y-82761000D01*
X130470900Y-84770000D02*
X130470900Y-83692740D01*
%TO.N,/MD_AIN1*%
X146072500Y-82066800D02*
X144869300Y-82066800D01*
%TO.N,/IMU_INT*%
D22*
X139970900Y-103939800D02*
X138970900Y-102939800D01*
X139970900Y-104193800D02*
X139970900Y-103939800D01*
%TO.N,/MT_PWM*%
D21*
X121572500Y-85066800D02*
X122572500Y-86066800D01*
X120869300Y-85066800D02*
X121572500Y-85066800D01*
X118470900Y-69465200D02*
X118470900Y-70668400D01*
X117670897Y-75566800D02*
X117670897Y-77066800D01*
%TO.N,/MT_SDA*%
X121470900Y-69465200D02*
X121470900Y-70566800D01*
X119470900Y-75812800D02*
X119470900Y-77066800D01*
X121470900Y-70566800D02*
X121369300Y-70668400D01*
%TO.N,/MT_SCL*%
X118470900Y-75566800D02*
X118470900Y-77066800D01*
X120470900Y-69465200D02*
X120470900Y-70668400D01*
%TO.N,/SWCLK*%
X119176071Y-96640597D02*
X118361192Y-95825718D01*
X119247894Y-96640597D02*
X119176071Y-96640597D01*
%TO.N,/ENC_B*%
X117795504Y-96391404D02*
X118646296Y-97242196D01*
%TO.N,/ENC_A*%
X117262581Y-98668400D02*
X117355300Y-98761119D01*
X115970900Y-98668400D02*
X117262581Y-98668400D01*
%TO.N,/IMU_SCL*%
D22*
X137470900Y-104193800D02*
X137470900Y-104066800D01*
X137470900Y-104066800D02*
X136470900Y-103066800D01*
%TO.N,/IMU_SDA*%
X138970900Y-103939800D02*
X137970900Y-102939800D01*
X138970900Y-104193800D02*
X138970900Y-103939800D01*
%TD*%
%TA.AperFunction,Conductor*%
%TO.N,GND*%
G36*
X115268320Y-57208512D02*
G01*
X115314075Y-57261316D01*
X115324019Y-57330474D01*
X115294994Y-57394030D01*
X115263281Y-57420214D01*
X115078380Y-57526965D01*
X114861233Y-57693588D01*
X114861226Y-57693594D01*
X114667694Y-57887126D01*
X114667688Y-57887133D01*
X114501065Y-58104280D01*
X114364213Y-58341316D01*
X114364209Y-58341326D01*
X114259468Y-58594193D01*
X114188625Y-58858580D01*
X114152901Y-59129934D01*
X114152900Y-59129951D01*
X114152900Y-59403648D01*
X114152901Y-59403665D01*
X114186919Y-59662063D01*
X114188626Y-59675023D01*
X114190704Y-59682777D01*
X114259468Y-59939406D01*
X114364209Y-60192273D01*
X114364213Y-60192283D01*
X114501065Y-60429319D01*
X114667688Y-60646466D01*
X114667694Y-60646473D01*
X114861226Y-60840005D01*
X114861233Y-60840011D01*
X115078380Y-61006634D01*
X115315416Y-61143486D01*
X115315417Y-61143486D01*
X115315420Y-61143488D01*
X115568294Y-61248232D01*
X115832677Y-61319074D01*
X116104045Y-61354800D01*
X116104052Y-61354800D01*
X116377748Y-61354800D01*
X116377755Y-61354800D01*
X116649123Y-61319074D01*
X116913506Y-61248232D01*
X117166380Y-61143488D01*
X117403420Y-61006634D01*
X117620568Y-60840010D01*
X117814110Y-60646468D01*
X117817091Y-60642583D01*
X149149000Y-60642583D01*
X149149000Y-62242601D01*
X149149001Y-62242618D01*
X149159500Y-62345396D01*
X149159501Y-62345399D01*
X149214685Y-62511931D01*
X149214686Y-62511934D01*
X149306788Y-62661256D01*
X149430844Y-62785312D01*
X149580166Y-62877414D01*
X149746703Y-62932599D01*
X149849491Y-62943100D01*
X151149508Y-62943099D01*
X151252297Y-62932599D01*
X151418834Y-62877414D01*
X151568156Y-62785312D01*
X151692212Y-62661256D01*
X151784314Y-62511934D01*
X151839499Y-62345397D01*
X151850000Y-62242609D01*
X151849999Y-60642592D01*
X151839499Y-60539803D01*
X151784314Y-60373266D01*
X151692212Y-60223944D01*
X151568156Y-60099888D01*
X151418834Y-60007786D01*
X151252297Y-59952601D01*
X151252295Y-59952600D01*
X151149510Y-59942100D01*
X149849498Y-59942100D01*
X149849481Y-59942101D01*
X149746703Y-59952600D01*
X149746700Y-59952601D01*
X149580168Y-60007785D01*
X149580163Y-60007787D01*
X149430842Y-60099889D01*
X149306789Y-60223942D01*
X149214687Y-60373263D01*
X149214685Y-60373268D01*
X149186849Y-60457270D01*
X149159501Y-60539803D01*
X149159501Y-60539804D01*
X149159500Y-60539804D01*
X149149000Y-60642583D01*
X117817091Y-60642583D01*
X117980734Y-60429320D01*
X118117588Y-60192280D01*
X118222332Y-59939406D01*
X118224482Y-59931383D01*
X157444000Y-59931383D01*
X157444000Y-61531401D01*
X157444001Y-61531418D01*
X157454500Y-61634196D01*
X157454501Y-61634199D01*
X157500394Y-61772694D01*
X157509686Y-61800734D01*
X157601788Y-61950056D01*
X157725844Y-62074112D01*
X157875166Y-62166214D01*
X158041703Y-62221399D01*
X158144491Y-62231900D01*
X159444508Y-62231899D01*
X159547297Y-62221399D01*
X159713834Y-62166214D01*
X159863156Y-62074112D01*
X159987212Y-61950056D01*
X160079314Y-61800734D01*
X160079314Y-61800731D01*
X160082678Y-61795279D01*
X160134626Y-61748554D01*
X160203588Y-61737331D01*
X160267670Y-61765174D01*
X160275898Y-61772694D01*
X160414713Y-61911509D01*
X160586679Y-62036448D01*
X160586681Y-62036449D01*
X160586684Y-62036451D01*
X160776088Y-62132957D01*
X160978257Y-62198646D01*
X161188213Y-62231900D01*
X161188214Y-62231900D01*
X161400786Y-62231900D01*
X161400787Y-62231900D01*
X161610743Y-62198646D01*
X161812912Y-62132957D01*
X162002316Y-62036451D01*
X162024289Y-62020486D01*
X162174286Y-61911509D01*
X162174288Y-61911506D01*
X162174292Y-61911504D01*
X162324604Y-61761192D01*
X162324606Y-61761188D01*
X162324609Y-61761186D01*
X162449548Y-61589220D01*
X162449547Y-61589220D01*
X162449551Y-61589216D01*
X162546057Y-61399812D01*
X162611746Y-61197643D01*
X162645000Y-60987687D01*
X162645000Y-60475113D01*
X162611746Y-60265157D01*
X162546057Y-60062988D01*
X162449551Y-59873584D01*
X162449549Y-59873581D01*
X162449548Y-59873579D01*
X162324609Y-59701613D01*
X162174286Y-59551290D01*
X162002320Y-59426351D01*
X161812914Y-59329844D01*
X161812913Y-59329843D01*
X161812912Y-59329843D01*
X161610743Y-59264154D01*
X161610741Y-59264153D01*
X161610740Y-59264153D01*
X161449457Y-59238608D01*
X161400787Y-59230900D01*
X161188213Y-59230900D01*
X161139542Y-59238608D01*
X160978260Y-59264153D01*
X160776085Y-59329844D01*
X160586679Y-59426351D01*
X160414715Y-59551289D01*
X160275898Y-59690106D01*
X160214575Y-59723590D01*
X160144883Y-59718606D01*
X160088950Y-59676734D01*
X160082678Y-59667520D01*
X159987212Y-59512744D01*
X159863157Y-59388689D01*
X159863156Y-59388688D01*
X159713834Y-59296586D01*
X159547297Y-59241401D01*
X159547295Y-59241400D01*
X159444510Y-59230900D01*
X158144498Y-59230900D01*
X158144481Y-59230901D01*
X158041703Y-59241400D01*
X158041700Y-59241401D01*
X157875168Y-59296585D01*
X157875163Y-59296587D01*
X157725842Y-59388689D01*
X157601789Y-59512742D01*
X157509687Y-59662063D01*
X157509685Y-59662068D01*
X157505394Y-59675019D01*
X157454501Y-59828603D01*
X157454501Y-59828604D01*
X157454500Y-59828604D01*
X157444000Y-59931383D01*
X118224482Y-59931383D01*
X118293174Y-59675023D01*
X118328900Y-59403655D01*
X118328900Y-59129945D01*
X118293174Y-58858577D01*
X118222332Y-58594194D01*
X118117588Y-58341320D01*
X118116814Y-58339980D01*
X117980734Y-58104280D01*
X117814111Y-57887133D01*
X117814105Y-57887126D01*
X117620573Y-57693594D01*
X117620566Y-57693588D01*
X117403419Y-57526965D01*
X117218519Y-57420214D01*
X117170304Y-57369648D01*
X117157080Y-57301041D01*
X117183048Y-57236176D01*
X117239962Y-57195647D01*
X117280519Y-57188827D01*
X165217432Y-57188827D01*
X165284471Y-57208512D01*
X165305113Y-57225146D01*
X166504081Y-58424114D01*
X166537566Y-58485437D01*
X166540400Y-58511795D01*
X166540400Y-69677788D01*
X166539648Y-69740706D01*
X166540400Y-69743652D01*
X166540400Y-69746692D01*
X166552543Y-69792013D01*
X166556475Y-69806687D01*
X166556850Y-69808120D01*
X166572231Y-69868397D01*
X166573580Y-69871768D01*
X166573603Y-69871824D01*
X166574379Y-69873763D01*
X166605574Y-69927794D01*
X166606308Y-69929082D01*
X166636754Y-69983303D01*
X166639002Y-69986306D01*
X166640224Y-69987938D01*
X166684320Y-70032034D01*
X166685362Y-70033088D01*
X166776043Y-70125963D01*
X168985123Y-72388489D01*
X169017873Y-72450207D01*
X169020400Y-72475115D01*
X169020400Y-73296619D01*
X169000715Y-73363658D01*
X168947911Y-73409413D01*
X168878753Y-73419357D01*
X168815197Y-73390332D01*
X168789013Y-73358619D01*
X168780734Y-73344280D01*
X168614111Y-73127133D01*
X168614105Y-73127126D01*
X168420573Y-72933594D01*
X168420566Y-72933588D01*
X168203419Y-72766965D01*
X167966383Y-72630113D01*
X167966373Y-72630109D01*
X167713506Y-72525368D01*
X167449119Y-72454525D01*
X167177765Y-72418801D01*
X167177760Y-72418800D01*
X167177755Y-72418800D01*
X166904045Y-72418800D01*
X166904039Y-72418800D01*
X166904034Y-72418801D01*
X166632680Y-72454525D01*
X166368293Y-72525368D01*
X166115426Y-72630109D01*
X166115416Y-72630113D01*
X165878380Y-72766965D01*
X165661233Y-72933588D01*
X165661226Y-72933594D01*
X165467694Y-73127126D01*
X165467688Y-73127133D01*
X165301065Y-73344280D01*
X165164213Y-73581316D01*
X165164209Y-73581326D01*
X165059468Y-73834193D01*
X164988625Y-74098580D01*
X164952901Y-74369934D01*
X164952900Y-74369951D01*
X164952900Y-74643648D01*
X164952901Y-74643665D01*
X164981040Y-74857406D01*
X164988626Y-74915023D01*
X165039103Y-75103402D01*
X165059468Y-75179406D01*
X165164209Y-75432273D01*
X165164213Y-75432283D01*
X165301065Y-75669319D01*
X165467688Y-75886466D01*
X165467694Y-75886473D01*
X165661226Y-76080005D01*
X165661233Y-76080011D01*
X165878380Y-76246634D01*
X166115416Y-76383486D01*
X166115417Y-76383486D01*
X166115420Y-76383488D01*
X166368294Y-76488232D01*
X166632677Y-76559074D01*
X166904045Y-76594800D01*
X166904052Y-76594800D01*
X167177748Y-76594800D01*
X167177755Y-76594800D01*
X167449123Y-76559074D01*
X167713506Y-76488232D01*
X167966380Y-76383488D01*
X168203420Y-76246634D01*
X168420568Y-76080010D01*
X168614110Y-75886468D01*
X168780734Y-75669320D01*
X168789011Y-75654982D01*
X168839577Y-75606766D01*
X168908184Y-75593541D01*
X168973049Y-75619508D01*
X169013579Y-75676421D01*
X169020400Y-75716980D01*
X169020400Y-101236619D01*
X169000715Y-101303658D01*
X168947911Y-101349413D01*
X168878753Y-101359357D01*
X168815197Y-101330332D01*
X168789013Y-101298619D01*
X168780734Y-101284280D01*
X168614111Y-101067133D01*
X168614105Y-101067126D01*
X168420573Y-100873594D01*
X168420566Y-100873588D01*
X168203419Y-100706965D01*
X167966383Y-100570113D01*
X167966373Y-100570109D01*
X167713506Y-100465368D01*
X167449119Y-100394525D01*
X167177765Y-100358801D01*
X167177760Y-100358800D01*
X167177755Y-100358800D01*
X166904045Y-100358800D01*
X166904039Y-100358800D01*
X166904034Y-100358801D01*
X166632680Y-100394525D01*
X166368293Y-100465368D01*
X166115426Y-100570109D01*
X166115416Y-100570113D01*
X165878380Y-100706965D01*
X165661233Y-100873588D01*
X165661226Y-100873594D01*
X165467694Y-101067126D01*
X165467688Y-101067133D01*
X165301065Y-101284280D01*
X165164213Y-101521316D01*
X165164209Y-101521326D01*
X165059468Y-101774193D01*
X164988625Y-102038580D01*
X164952901Y-102309934D01*
X164952900Y-102309951D01*
X164952900Y-102583648D01*
X164952901Y-102583665D01*
X164988625Y-102855019D01*
X165059468Y-103119406D01*
X165164209Y-103372273D01*
X165164213Y-103372283D01*
X165301065Y-103609319D01*
X165467688Y-103826466D01*
X165467694Y-103826473D01*
X165661226Y-104020005D01*
X165661233Y-104020011D01*
X165878380Y-104186634D01*
X166115416Y-104323486D01*
X166115417Y-104323486D01*
X166115420Y-104323488D01*
X166368294Y-104428232D01*
X166632677Y-104499074D01*
X166904045Y-104534800D01*
X166904052Y-104534800D01*
X167177748Y-104534800D01*
X167177755Y-104534800D01*
X167449123Y-104499074D01*
X167713506Y-104428232D01*
X167966380Y-104323488D01*
X168203420Y-104186634D01*
X168420568Y-104020010D01*
X168614110Y-103826468D01*
X168780734Y-103609320D01*
X168789011Y-103594982D01*
X168839577Y-103546766D01*
X168908184Y-103533541D01*
X168973049Y-103559508D01*
X169013579Y-103616421D01*
X169020400Y-103656980D01*
X169020400Y-104732483D01*
X169000715Y-104799522D01*
X168985123Y-104819110D01*
X166685362Y-107174510D01*
X166685361Y-107174509D01*
X166684741Y-107175143D01*
X166640400Y-107219486D01*
X166638882Y-107222114D01*
X166636756Y-107224292D01*
X166606303Y-107278521D01*
X166606304Y-107278522D01*
X166605923Y-107279199D01*
X166574508Y-107333614D01*
X166573721Y-107336549D01*
X166572230Y-107339205D01*
X166556838Y-107399521D01*
X166556641Y-107400291D01*
X166540400Y-107460908D01*
X166540400Y-107463941D01*
X166539648Y-107466889D01*
X166540391Y-107529057D01*
X166540400Y-107530539D01*
X166540400Y-109442300D01*
X166520715Y-109509339D01*
X166467911Y-109555094D01*
X166416400Y-109566300D01*
X116047157Y-109566300D01*
X115980118Y-109546615D01*
X115934363Y-109493811D01*
X115924419Y-109424653D01*
X115953444Y-109361097D01*
X115985157Y-109334913D01*
X116031935Y-109307905D01*
X116103420Y-109266634D01*
X116320568Y-109100010D01*
X116514110Y-108906468D01*
X116680734Y-108689320D01*
X116817588Y-108452280D01*
X116922332Y-108199406D01*
X116993174Y-107935023D01*
X117028900Y-107663655D01*
X117028900Y-107389945D01*
X116993174Y-107118577D01*
X116922332Y-106854194D01*
X116817588Y-106601320D01*
X116816814Y-106599980D01*
X116781027Y-106537995D01*
X123204999Y-106537995D01*
X123231918Y-106673322D01*
X123231921Y-106673332D01*
X123284721Y-106800804D01*
X123284728Y-106800817D01*
X123361385Y-106915541D01*
X123361388Y-106915545D01*
X123458954Y-107013111D01*
X123458958Y-107013114D01*
X123573682Y-107089771D01*
X123573695Y-107089778D01*
X123701167Y-107142578D01*
X123701172Y-107142580D01*
X123701176Y-107142580D01*
X123701177Y-107142581D01*
X123836504Y-107169500D01*
X123836507Y-107169500D01*
X123974495Y-107169500D01*
X124065541Y-107151389D01*
X124109828Y-107142580D01*
X124237311Y-107089775D01*
X124352042Y-107013114D01*
X124449614Y-106915542D01*
X124526275Y-106800811D01*
X124579080Y-106673328D01*
X124593402Y-106601326D01*
X124606000Y-106537995D01*
X126204999Y-106537995D01*
X126231918Y-106673322D01*
X126231921Y-106673332D01*
X126284721Y-106800804D01*
X126284728Y-106800817D01*
X126361385Y-106915541D01*
X126361388Y-106915545D01*
X126458954Y-107013111D01*
X126458958Y-107013114D01*
X126573682Y-107089771D01*
X126573695Y-107089778D01*
X126701167Y-107142578D01*
X126701172Y-107142580D01*
X126701176Y-107142580D01*
X126701177Y-107142581D01*
X126836504Y-107169500D01*
X126836507Y-107169500D01*
X126974495Y-107169500D01*
X127065541Y-107151389D01*
X127109828Y-107142580D01*
X127237311Y-107089775D01*
X127352042Y-107013114D01*
X127449614Y-106915542D01*
X127526275Y-106800811D01*
X127579080Y-106673328D01*
X127593402Y-106601326D01*
X127606000Y-106537995D01*
X127606000Y-106467935D01*
X133161600Y-106467935D01*
X133161600Y-108263670D01*
X133161601Y-108263676D01*
X133168008Y-108323283D01*
X133218302Y-108458128D01*
X133218306Y-108458135D01*
X133304552Y-108573344D01*
X133304555Y-108573347D01*
X133419764Y-108659593D01*
X133419771Y-108659597D01*
X133554617Y-108709891D01*
X133554616Y-108709891D01*
X133561544Y-108710635D01*
X133614227Y-108716300D01*
X135409972Y-108716299D01*
X135469583Y-108709891D01*
X135604431Y-108659596D01*
X135719646Y-108573346D01*
X135805896Y-108458131D01*
X135856191Y-108323283D01*
X135862600Y-108263673D01*
X135862599Y-107259513D01*
X138241600Y-107259513D01*
X138241600Y-107472086D01*
X138271941Y-107663655D01*
X138274854Y-107682043D01*
X138297291Y-107751098D01*
X138340544Y-107884214D01*
X138437051Y-108073620D01*
X138561990Y-108245586D01*
X138712313Y-108395909D01*
X138884279Y-108520848D01*
X138884281Y-108520849D01*
X138884284Y-108520851D01*
X139073688Y-108617357D01*
X139275857Y-108683046D01*
X139485813Y-108716300D01*
X139485814Y-108716300D01*
X139698386Y-108716300D01*
X139698387Y-108716300D01*
X139908343Y-108683046D01*
X140110512Y-108617357D01*
X140299916Y-108520851D01*
X140386238Y-108458135D01*
X140471886Y-108395909D01*
X140471888Y-108395906D01*
X140471892Y-108395904D01*
X140622204Y-108245592D01*
X140622206Y-108245588D01*
X140622209Y-108245586D01*
X140747148Y-108073620D01*
X140747147Y-108073620D01*
X140747151Y-108073616D01*
X140751614Y-108064854D01*
X140799588Y-108014059D01*
X140867408Y-107997263D01*
X140933544Y-108019799D01*
X140972586Y-108064856D01*
X140977051Y-108073620D01*
X141101990Y-108245586D01*
X141252313Y-108395909D01*
X141424279Y-108520848D01*
X141424281Y-108520849D01*
X141424284Y-108520851D01*
X141613688Y-108617357D01*
X141815857Y-108683046D01*
X142025813Y-108716300D01*
X142025814Y-108716300D01*
X142238386Y-108716300D01*
X142238387Y-108716300D01*
X142448343Y-108683046D01*
X142650512Y-108617357D01*
X142839916Y-108520851D01*
X142926238Y-108458135D01*
X143011886Y-108395909D01*
X143011888Y-108395906D01*
X143011892Y-108395904D01*
X143162204Y-108245592D01*
X143162206Y-108245588D01*
X143162209Y-108245586D01*
X143287148Y-108073620D01*
X143287147Y-108073620D01*
X143287151Y-108073616D01*
X143291614Y-108064854D01*
X143339588Y-108014059D01*
X143407408Y-107997263D01*
X143473544Y-108019799D01*
X143512586Y-108064856D01*
X143517051Y-108073620D01*
X143641990Y-108245586D01*
X143792313Y-108395909D01*
X143964279Y-108520848D01*
X143964281Y-108520849D01*
X143964284Y-108520851D01*
X144153688Y-108617357D01*
X144355857Y-108683046D01*
X144565813Y-108716300D01*
X144565814Y-108716300D01*
X144778386Y-108716300D01*
X144778387Y-108716300D01*
X144988343Y-108683046D01*
X145190512Y-108617357D01*
X145379916Y-108520851D01*
X145466238Y-108458135D01*
X145551886Y-108395909D01*
X145551888Y-108395906D01*
X145551892Y-108395904D01*
X145702204Y-108245592D01*
X145702206Y-108245588D01*
X145702209Y-108245586D01*
X145827148Y-108073620D01*
X145827147Y-108073620D01*
X145827151Y-108073616D01*
X145831614Y-108064854D01*
X145879588Y-108014059D01*
X145947408Y-107997263D01*
X146013544Y-108019799D01*
X146052586Y-108064856D01*
X146057051Y-108073620D01*
X146181990Y-108245586D01*
X146332313Y-108395909D01*
X146504279Y-108520848D01*
X146504281Y-108520849D01*
X146504284Y-108520851D01*
X146693688Y-108617357D01*
X146895857Y-108683046D01*
X147105813Y-108716300D01*
X147105814Y-108716300D01*
X147318386Y-108716300D01*
X147318387Y-108716300D01*
X147528343Y-108683046D01*
X147730512Y-108617357D01*
X147919916Y-108520851D01*
X148006238Y-108458135D01*
X148091886Y-108395909D01*
X148091888Y-108395906D01*
X148091892Y-108395904D01*
X148242204Y-108245592D01*
X148242206Y-108245588D01*
X148242209Y-108245586D01*
X148367148Y-108073620D01*
X148367147Y-108073620D01*
X148367151Y-108073616D01*
X148371614Y-108064854D01*
X148419588Y-108014059D01*
X148487408Y-107997263D01*
X148553544Y-108019799D01*
X148592586Y-108064856D01*
X148597051Y-108073620D01*
X148721990Y-108245586D01*
X148872313Y-108395909D01*
X149044279Y-108520848D01*
X149044281Y-108520849D01*
X149044284Y-108520851D01*
X149233688Y-108617357D01*
X149435857Y-108683046D01*
X149645813Y-108716300D01*
X149645814Y-108716300D01*
X149858386Y-108716300D01*
X149858387Y-108716300D01*
X150068343Y-108683046D01*
X150270512Y-108617357D01*
X150459916Y-108520851D01*
X150546238Y-108458135D01*
X150631886Y-108395909D01*
X150631888Y-108395906D01*
X150631892Y-108395904D01*
X150782204Y-108245592D01*
X150782206Y-108245588D01*
X150782209Y-108245586D01*
X150907148Y-108073620D01*
X150907147Y-108073620D01*
X150907151Y-108073616D01*
X150911614Y-108064854D01*
X150959588Y-108014059D01*
X151027408Y-107997263D01*
X151093544Y-108019799D01*
X151132586Y-108064856D01*
X151137051Y-108073620D01*
X151261990Y-108245586D01*
X151412313Y-108395909D01*
X151584279Y-108520848D01*
X151584281Y-108520849D01*
X151584284Y-108520851D01*
X151773688Y-108617357D01*
X151975857Y-108683046D01*
X152185813Y-108716300D01*
X152185814Y-108716300D01*
X152398386Y-108716300D01*
X152398387Y-108716300D01*
X152608343Y-108683046D01*
X152810512Y-108617357D01*
X152999916Y-108520851D01*
X153086238Y-108458135D01*
X153171886Y-108395909D01*
X153171888Y-108395906D01*
X153171892Y-108395904D01*
X153322204Y-108245592D01*
X153322206Y-108245588D01*
X153322209Y-108245586D01*
X153447148Y-108073620D01*
X153447147Y-108073620D01*
X153447151Y-108073616D01*
X153543657Y-107884212D01*
X153609346Y-107682043D01*
X153642600Y-107472087D01*
X153642600Y-107259513D01*
X153609346Y-107049557D01*
X153543657Y-106847388D01*
X153447151Y-106657984D01*
X153447149Y-106657981D01*
X153447148Y-106657979D01*
X153322209Y-106486013D01*
X153171886Y-106335690D01*
X152999920Y-106210751D01*
X152810514Y-106114244D01*
X152810513Y-106114243D01*
X152810512Y-106114243D01*
X152608343Y-106048554D01*
X152608341Y-106048553D01*
X152608340Y-106048553D01*
X152447057Y-106023008D01*
X152398387Y-106015300D01*
X152185813Y-106015300D01*
X152137142Y-106023008D01*
X151975860Y-106048553D01*
X151773685Y-106114244D01*
X151584279Y-106210751D01*
X151412313Y-106335690D01*
X151261990Y-106486013D01*
X151137049Y-106657982D01*
X151132584Y-106666746D01*
X151084609Y-106717542D01*
X151016788Y-106734336D01*
X150950653Y-106711798D01*
X150911616Y-106666746D01*
X150907150Y-106657982D01*
X150782209Y-106486013D01*
X150631886Y-106335690D01*
X150459920Y-106210751D01*
X150270514Y-106114244D01*
X150270513Y-106114243D01*
X150270512Y-106114243D01*
X150068343Y-106048554D01*
X150068341Y-106048553D01*
X150068340Y-106048553D01*
X149907057Y-106023008D01*
X149858387Y-106015300D01*
X149645813Y-106015300D01*
X149597142Y-106023008D01*
X149435860Y-106048553D01*
X149233685Y-106114244D01*
X149044279Y-106210751D01*
X148872313Y-106335690D01*
X148721990Y-106486013D01*
X148597049Y-106657982D01*
X148592584Y-106666746D01*
X148544609Y-106717542D01*
X148476788Y-106734336D01*
X148410653Y-106711798D01*
X148371616Y-106666746D01*
X148367150Y-106657982D01*
X148242209Y-106486013D01*
X148091886Y-106335690D01*
X147919920Y-106210751D01*
X147730514Y-106114244D01*
X147730513Y-106114243D01*
X147730512Y-106114243D01*
X147528343Y-106048554D01*
X147528341Y-106048553D01*
X147528340Y-106048553D01*
X147367057Y-106023008D01*
X147318387Y-106015300D01*
X147105813Y-106015300D01*
X147057142Y-106023008D01*
X146895860Y-106048553D01*
X146693685Y-106114244D01*
X146504279Y-106210751D01*
X146332313Y-106335690D01*
X146181990Y-106486013D01*
X146057049Y-106657982D01*
X146052584Y-106666746D01*
X146004609Y-106717542D01*
X145936788Y-106734336D01*
X145870653Y-106711798D01*
X145831616Y-106666746D01*
X145827150Y-106657982D01*
X145702209Y-106486013D01*
X145551886Y-106335690D01*
X145379920Y-106210751D01*
X145190514Y-106114244D01*
X145190513Y-106114243D01*
X145190512Y-106114243D01*
X144988343Y-106048554D01*
X144988341Y-106048553D01*
X144988340Y-106048553D01*
X144827057Y-106023008D01*
X144778387Y-106015300D01*
X144565813Y-106015300D01*
X144517142Y-106023008D01*
X144355860Y-106048553D01*
X144153685Y-106114244D01*
X143964279Y-106210751D01*
X143792313Y-106335690D01*
X143641990Y-106486013D01*
X143517049Y-106657982D01*
X143512584Y-106666746D01*
X143464609Y-106717542D01*
X143396788Y-106734336D01*
X143330653Y-106711798D01*
X143291616Y-106666746D01*
X143287150Y-106657982D01*
X143162209Y-106486013D01*
X143011886Y-106335690D01*
X142839920Y-106210751D01*
X142650514Y-106114244D01*
X142650513Y-106114243D01*
X142650512Y-106114243D01*
X142448343Y-106048554D01*
X142448341Y-106048553D01*
X142448340Y-106048553D01*
X142287057Y-106023008D01*
X142238387Y-106015300D01*
X142025813Y-106015300D01*
X141977142Y-106023008D01*
X141815860Y-106048553D01*
X141613685Y-106114244D01*
X141424279Y-106210751D01*
X141252313Y-106335690D01*
X141101990Y-106486013D01*
X140977049Y-106657982D01*
X140972584Y-106666746D01*
X140924609Y-106717542D01*
X140856788Y-106734336D01*
X140790653Y-106711798D01*
X140751616Y-106666746D01*
X140747150Y-106657982D01*
X140622209Y-106486013D01*
X140471886Y-106335690D01*
X140299920Y-106210751D01*
X140110514Y-106114244D01*
X140110513Y-106114243D01*
X140110512Y-106114243D01*
X139908343Y-106048554D01*
X139908341Y-106048553D01*
X139908340Y-106048553D01*
X139747057Y-106023008D01*
X139698387Y-106015300D01*
X139485813Y-106015300D01*
X139437142Y-106023008D01*
X139275860Y-106048553D01*
X139073685Y-106114244D01*
X138884279Y-106210751D01*
X138712313Y-106335690D01*
X138561990Y-106486013D01*
X138437051Y-106657979D01*
X138340544Y-106847385D01*
X138274853Y-107049560D01*
X138241600Y-107259513D01*
X135862599Y-107259513D01*
X135862599Y-106467928D01*
X135856191Y-106408317D01*
X135853090Y-106400004D01*
X135805897Y-106273471D01*
X135805893Y-106273464D01*
X135719647Y-106158255D01*
X135719644Y-106158252D01*
X135604435Y-106072006D01*
X135604428Y-106072002D01*
X135469582Y-106021708D01*
X135469583Y-106021708D01*
X135409983Y-106015301D01*
X135409981Y-106015300D01*
X135409973Y-106015300D01*
X135409964Y-106015300D01*
X133614229Y-106015300D01*
X133614223Y-106015301D01*
X133554616Y-106021708D01*
X133419771Y-106072002D01*
X133419764Y-106072006D01*
X133304555Y-106158252D01*
X133304552Y-106158255D01*
X133218306Y-106273464D01*
X133218302Y-106273471D01*
X133168008Y-106408317D01*
X133162269Y-106461700D01*
X133161601Y-106467923D01*
X133161600Y-106467935D01*
X127606000Y-106467935D01*
X127606000Y-106400004D01*
X127579081Y-106264677D01*
X127579080Y-106264676D01*
X127579080Y-106264672D01*
X127579078Y-106264667D01*
X127526278Y-106137195D01*
X127526271Y-106137182D01*
X127449614Y-106022458D01*
X127449611Y-106022454D01*
X127352045Y-105924888D01*
X127352041Y-105924885D01*
X127237317Y-105848228D01*
X127237304Y-105848221D01*
X127109832Y-105795421D01*
X127109822Y-105795418D01*
X126974495Y-105768500D01*
X126974493Y-105768500D01*
X126836507Y-105768500D01*
X126836505Y-105768500D01*
X126701177Y-105795418D01*
X126701167Y-105795421D01*
X126573695Y-105848221D01*
X126573682Y-105848228D01*
X126458958Y-105924885D01*
X126458954Y-105924888D01*
X126361388Y-106022454D01*
X126361385Y-106022458D01*
X126284728Y-106137182D01*
X126284721Y-106137195D01*
X126231921Y-106264667D01*
X126231918Y-106264677D01*
X126205000Y-106400004D01*
X126205000Y-106400007D01*
X126205000Y-106537993D01*
X126205000Y-106537995D01*
X126204999Y-106537995D01*
X124606000Y-106537995D01*
X124606000Y-106400004D01*
X124579081Y-106264677D01*
X124579080Y-106264676D01*
X124579080Y-106264672D01*
X124579078Y-106264667D01*
X124526278Y-106137195D01*
X124526271Y-106137182D01*
X124449614Y-106022458D01*
X124449611Y-106022454D01*
X124352045Y-105924888D01*
X124352041Y-105924885D01*
X124237317Y-105848228D01*
X124237304Y-105848221D01*
X124109832Y-105795421D01*
X124109822Y-105795418D01*
X123974495Y-105768500D01*
X123974493Y-105768500D01*
X123836507Y-105768500D01*
X123836505Y-105768500D01*
X123701177Y-105795418D01*
X123701167Y-105795421D01*
X123573695Y-105848221D01*
X123573682Y-105848228D01*
X123458958Y-105924885D01*
X123458954Y-105924888D01*
X123361388Y-106022454D01*
X123361385Y-106022458D01*
X123284728Y-106137182D01*
X123284721Y-106137195D01*
X123231921Y-106264667D01*
X123231918Y-106264677D01*
X123205000Y-106400004D01*
X123205000Y-106400007D01*
X123205000Y-106537993D01*
X123205000Y-106537995D01*
X123204999Y-106537995D01*
X116781027Y-106537995D01*
X116733639Y-106455915D01*
X116733638Y-106455914D01*
X116730915Y-106451198D01*
X116680734Y-106364280D01*
X116680733Y-106364278D01*
X116514111Y-106147133D01*
X116514105Y-106147126D01*
X116320573Y-105953594D01*
X116320566Y-105953588D01*
X116103419Y-105786965D01*
X115866383Y-105650113D01*
X115866373Y-105650109D01*
X115613506Y-105545368D01*
X115349119Y-105474525D01*
X115077765Y-105438801D01*
X115077760Y-105438800D01*
X115077755Y-105438800D01*
X114804045Y-105438800D01*
X114804039Y-105438800D01*
X114804034Y-105438801D01*
X114532680Y-105474525D01*
X114268293Y-105545368D01*
X114015426Y-105650109D01*
X114015416Y-105650113D01*
X113778380Y-105786965D01*
X113561233Y-105953588D01*
X113561226Y-105953594D01*
X113367694Y-106147126D01*
X113367688Y-106147133D01*
X113201065Y-106364280D01*
X113064213Y-106601316D01*
X113064209Y-106601326D01*
X112959468Y-106854193D01*
X112888625Y-107118580D01*
X112852901Y-107389934D01*
X112852900Y-107389951D01*
X112852900Y-107663648D01*
X112852901Y-107663665D01*
X112888625Y-107935019D01*
X112959468Y-108199406D01*
X113064209Y-108452273D01*
X113064213Y-108452283D01*
X113201065Y-108689319D01*
X113367688Y-108906466D01*
X113367694Y-108906473D01*
X113561226Y-109100005D01*
X113561233Y-109100011D01*
X113778380Y-109266634D01*
X113896643Y-109334913D01*
X113944858Y-109385480D01*
X113958082Y-109454087D01*
X113932114Y-109518951D01*
X113875200Y-109559480D01*
X113834643Y-109566300D01*
X101595400Y-109566300D01*
X101528361Y-109546615D01*
X101482606Y-109493811D01*
X101471400Y-109442300D01*
X101471400Y-103754313D01*
X102046600Y-103754313D01*
X102046600Y-103966886D01*
X102077373Y-104161183D01*
X102079854Y-104176843D01*
X102127501Y-104323486D01*
X102145544Y-104379014D01*
X102242051Y-104568420D01*
X102366990Y-104740386D01*
X102480530Y-104853926D01*
X102514015Y-104915249D01*
X102509031Y-104984941D01*
X102467159Y-105040874D01*
X102436183Y-105057789D01*
X102304769Y-105106803D01*
X102304764Y-105106806D01*
X102189555Y-105193052D01*
X102189552Y-105193055D01*
X102103306Y-105308264D01*
X102103302Y-105308271D01*
X102053008Y-105443117D01*
X102046601Y-105502716D01*
X102046601Y-105502723D01*
X102046600Y-105502735D01*
X102046600Y-107298470D01*
X102046601Y-107298476D01*
X102053008Y-107358083D01*
X102103302Y-107492928D01*
X102103306Y-107492935D01*
X102189552Y-107608144D01*
X102189555Y-107608147D01*
X102304764Y-107694393D01*
X102304771Y-107694397D01*
X102439617Y-107744691D01*
X102439616Y-107744691D01*
X102446544Y-107745435D01*
X102499227Y-107751100D01*
X104294972Y-107751099D01*
X104354583Y-107744691D01*
X104489431Y-107694396D01*
X104604646Y-107608146D01*
X104690896Y-107492931D01*
X104741191Y-107358083D01*
X104747600Y-107298473D01*
X104747599Y-105502728D01*
X104741191Y-105443117D01*
X104739581Y-105438801D01*
X104690897Y-105308271D01*
X104690893Y-105308264D01*
X104604647Y-105193055D01*
X104604644Y-105193052D01*
X104489435Y-105106806D01*
X104489428Y-105106802D01*
X104358017Y-105057789D01*
X104302083Y-105015918D01*
X104277666Y-104950453D01*
X104292518Y-104882180D01*
X104313663Y-104853932D01*
X104427204Y-104740392D01*
X104453580Y-104704089D01*
X104552148Y-104568420D01*
X104552147Y-104568420D01*
X104552151Y-104568416D01*
X104648657Y-104379012D01*
X104714346Y-104176843D01*
X104747600Y-103966887D01*
X104747600Y-103754313D01*
X104714346Y-103544357D01*
X104648657Y-103342188D01*
X104552151Y-103152784D01*
X104552149Y-103152781D01*
X104552148Y-103152779D01*
X104427209Y-102980813D01*
X104276886Y-102830490D01*
X104104920Y-102705551D01*
X103915514Y-102609044D01*
X103915513Y-102609043D01*
X103915512Y-102609043D01*
X103713343Y-102543354D01*
X103713341Y-102543353D01*
X103713340Y-102543353D01*
X103552057Y-102517808D01*
X103503387Y-102510100D01*
X103290813Y-102510100D01*
X103242142Y-102517808D01*
X103080860Y-102543353D01*
X102878685Y-102609044D01*
X102689279Y-102705551D01*
X102517313Y-102830490D01*
X102366990Y-102980813D01*
X102242051Y-103152779D01*
X102145544Y-103342185D01*
X102145543Y-103342187D01*
X102145543Y-103342188D01*
X102135330Y-103373620D01*
X102079853Y-103544360D01*
X102046600Y-103754313D01*
X101471400Y-103754313D01*
X101471400Y-102181513D01*
X110403200Y-102181513D01*
X110403200Y-102644086D01*
X110432723Y-102830490D01*
X110436454Y-102854043D01*
X110479964Y-102987953D01*
X110502144Y-103056214D01*
X110598651Y-103245620D01*
X110723590Y-103417586D01*
X110873913Y-103567909D01*
X111045879Y-103692848D01*
X111045881Y-103692849D01*
X111045884Y-103692851D01*
X111235288Y-103789357D01*
X111437457Y-103855046D01*
X111647413Y-103888300D01*
X111647414Y-103888300D01*
X111859986Y-103888300D01*
X111859987Y-103888300D01*
X112069943Y-103855046D01*
X112272112Y-103789357D01*
X112461516Y-103692851D01*
X112512032Y-103656149D01*
X112633486Y-103567909D01*
X112633488Y-103567906D01*
X112633492Y-103567904D01*
X112783804Y-103417592D01*
X112903383Y-103253004D01*
X112958711Y-103210340D01*
X113028324Y-103204361D01*
X113090120Y-103236966D01*
X113104013Y-103252999D01*
X113191649Y-103373620D01*
X113223596Y-103417592D01*
X113373913Y-103567909D01*
X113545879Y-103692848D01*
X113545881Y-103692849D01*
X113545884Y-103692851D01*
X113735288Y-103789357D01*
X113937457Y-103855046D01*
X114147413Y-103888300D01*
X114147414Y-103888300D01*
X114359986Y-103888300D01*
X114359987Y-103888300D01*
X114569943Y-103855046D01*
X114772112Y-103789357D01*
X114961516Y-103692851D01*
X115133492Y-103567904D01*
X115272304Y-103429091D01*
X115333623Y-103395609D01*
X115403315Y-103400593D01*
X115459249Y-103442464D01*
X115465521Y-103451678D01*
X115468885Y-103457133D01*
X115468886Y-103457134D01*
X115560988Y-103606456D01*
X115685044Y-103730512D01*
X115834366Y-103822614D01*
X116000903Y-103877799D01*
X116103691Y-103888300D01*
X117403708Y-103888299D01*
X117506497Y-103877799D01*
X117673034Y-103822614D01*
X117822356Y-103730512D01*
X117946412Y-103606456D01*
X118038514Y-103457134D01*
X118093699Y-103290597D01*
X118104200Y-103187809D01*
X118104200Y-102987953D01*
X135670400Y-102987953D01*
X135670400Y-103145646D01*
X135701161Y-103300289D01*
X135701164Y-103300301D01*
X135761502Y-103445972D01*
X135761509Y-103445985D01*
X135849110Y-103577088D01*
X135849113Y-103577092D01*
X135960607Y-103688586D01*
X135960611Y-103688589D01*
X136091714Y-103776190D01*
X136091727Y-103776197D01*
X136159861Y-103804418D01*
X136237403Y-103836537D01*
X136345085Y-103857956D01*
X136406992Y-103890339D01*
X136408572Y-103891891D01*
X136634081Y-104117400D01*
X136667566Y-104178723D01*
X136670400Y-104205081D01*
X136670400Y-104272646D01*
X136701161Y-104427289D01*
X136701164Y-104427301D01*
X136761502Y-104572972D01*
X136761509Y-104572985D01*
X136849110Y-104704088D01*
X136849113Y-104704092D01*
X136960607Y-104815586D01*
X136960611Y-104815589D01*
X137091714Y-104903190D01*
X137091727Y-104903197D01*
X137205815Y-104950453D01*
X137237403Y-104963537D01*
X137392053Y-104994299D01*
X137392056Y-104994300D01*
X137392058Y-104994300D01*
X137549744Y-104994300D01*
X137549745Y-104994299D01*
X137704397Y-104963537D01*
X137850079Y-104903194D01*
X137981189Y-104815589D01*
X138092689Y-104704089D01*
X138100045Y-104693079D01*
X138117798Y-104666512D01*
X138171410Y-104621706D01*
X138240735Y-104612999D01*
X138303762Y-104643153D01*
X138324002Y-104666512D01*
X138349107Y-104704084D01*
X138349113Y-104704092D01*
X138460607Y-104815586D01*
X138460611Y-104815589D01*
X138591714Y-104903190D01*
X138591727Y-104903197D01*
X138705815Y-104950453D01*
X138737403Y-104963537D01*
X138892053Y-104994299D01*
X138892056Y-104994300D01*
X138892058Y-104994300D01*
X139049744Y-104994300D01*
X139049745Y-104994299D01*
X139204397Y-104963537D01*
X139350079Y-104903194D01*
X139402010Y-104868494D01*
X139468685Y-104847616D01*
X139536065Y-104866100D01*
X139539763Y-104868476D01*
X139591721Y-104903194D01*
X139591723Y-104903195D01*
X139591725Y-104903196D01*
X139705815Y-104950453D01*
X139737403Y-104963537D01*
X139892053Y-104994299D01*
X139892056Y-104994300D01*
X139892058Y-104994300D01*
X140049744Y-104994300D01*
X140049745Y-104994299D01*
X140204397Y-104963537D01*
X140350079Y-104903194D01*
X140481189Y-104815589D01*
X140592689Y-104704089D01*
X140680294Y-104572979D01*
X140740637Y-104427297D01*
X140771400Y-104272642D01*
X140771400Y-104161183D01*
X157565600Y-104161183D01*
X157565600Y-105761201D01*
X157565601Y-105761218D01*
X157576100Y-105863996D01*
X157576101Y-105863999D01*
X157631285Y-106030531D01*
X157631287Y-106030536D01*
X157656865Y-106072004D01*
X157723388Y-106179856D01*
X157847444Y-106303912D01*
X157996766Y-106396014D01*
X158163303Y-106451199D01*
X158266091Y-106461700D01*
X159566108Y-106461699D01*
X159668897Y-106451199D01*
X159835434Y-106396014D01*
X159984756Y-106303912D01*
X160108812Y-106179856D01*
X160200914Y-106030534D01*
X160200914Y-106030531D01*
X160204278Y-106025079D01*
X160256226Y-105978354D01*
X160325188Y-105967131D01*
X160389270Y-105994974D01*
X160397498Y-106002494D01*
X160536313Y-106141309D01*
X160708279Y-106266248D01*
X160708281Y-106266249D01*
X160708284Y-106266251D01*
X160897688Y-106362757D01*
X161099857Y-106428446D01*
X161309813Y-106461700D01*
X161309814Y-106461700D01*
X161522386Y-106461700D01*
X161522387Y-106461700D01*
X161732343Y-106428446D01*
X161934512Y-106362757D01*
X162123916Y-106266251D01*
X162200306Y-106210751D01*
X162295886Y-106141309D01*
X162295888Y-106141306D01*
X162295892Y-106141304D01*
X162446204Y-105990992D01*
X162446206Y-105990988D01*
X162446209Y-105990986D01*
X162571148Y-105819020D01*
X162571147Y-105819020D01*
X162571151Y-105819016D01*
X162667657Y-105629612D01*
X162733346Y-105427443D01*
X162766600Y-105217487D01*
X162766600Y-104704913D01*
X162733346Y-104494957D01*
X162667657Y-104292788D01*
X162571151Y-104103384D01*
X162571149Y-104103381D01*
X162571148Y-104103379D01*
X162446209Y-103931413D01*
X162295886Y-103781090D01*
X162123920Y-103656151D01*
X161934514Y-103559644D01*
X161934513Y-103559643D01*
X161934512Y-103559643D01*
X161732343Y-103493954D01*
X161732341Y-103493953D01*
X161732340Y-103493953D01*
X161571057Y-103468408D01*
X161522387Y-103460700D01*
X161309813Y-103460700D01*
X161261142Y-103468408D01*
X161099860Y-103493953D01*
X161099857Y-103493954D01*
X160898104Y-103559508D01*
X160897685Y-103559644D01*
X160708279Y-103656151D01*
X160536315Y-103781089D01*
X160397498Y-103919906D01*
X160336175Y-103953390D01*
X160266483Y-103948406D01*
X160210550Y-103906534D01*
X160204278Y-103897320D01*
X160160579Y-103826473D01*
X160108812Y-103742544D01*
X159984756Y-103618488D01*
X159889134Y-103559508D01*
X159835436Y-103526387D01*
X159835431Y-103526385D01*
X159767171Y-103503766D01*
X159668897Y-103471201D01*
X159668895Y-103471200D01*
X159566110Y-103460700D01*
X158266098Y-103460700D01*
X158266081Y-103460701D01*
X158163303Y-103471200D01*
X158163300Y-103471201D01*
X157996768Y-103526385D01*
X157996763Y-103526387D01*
X157847442Y-103618489D01*
X157723389Y-103742542D01*
X157631287Y-103891863D01*
X157631285Y-103891868D01*
X157626425Y-103906534D01*
X157576101Y-104058403D01*
X157576101Y-104058404D01*
X157576100Y-104058404D01*
X157565600Y-104161183D01*
X140771400Y-104161183D01*
X140771400Y-104114958D01*
X140771400Y-104114955D01*
X140771399Y-104114953D01*
X140769097Y-104103379D01*
X140740637Y-103960303D01*
X140735709Y-103948406D01*
X140680297Y-103814627D01*
X140680290Y-103814614D01*
X140592689Y-103683511D01*
X140592686Y-103683507D01*
X140485756Y-103576577D01*
X140482399Y-103573087D01*
X140475764Y-103565913D01*
X140458311Y-103539792D01*
X140370908Y-103452389D01*
X139795991Y-102877472D01*
X139762506Y-102816149D01*
X139762083Y-102814123D01*
X139740637Y-102706303D01*
X139725551Y-102669882D01*
X139680297Y-102560627D01*
X139680290Y-102560614D01*
X139592689Y-102429511D01*
X139592686Y-102429507D01*
X139481192Y-102318013D01*
X139481188Y-102318010D01*
X139350085Y-102230409D01*
X139350072Y-102230402D01*
X139204401Y-102170064D01*
X139204389Y-102170061D01*
X139049745Y-102139300D01*
X139049742Y-102139300D01*
X138892058Y-102139300D01*
X138892055Y-102139300D01*
X138737410Y-102170061D01*
X138737398Y-102170064D01*
X138591727Y-102230402D01*
X138591714Y-102230409D01*
X138539791Y-102265104D01*
X138473114Y-102285982D01*
X138405733Y-102267498D01*
X138402009Y-102265104D01*
X138350085Y-102230409D01*
X138350072Y-102230402D01*
X138204401Y-102170064D01*
X138204389Y-102170061D01*
X138049745Y-102139300D01*
X138049742Y-102139300D01*
X137892058Y-102139300D01*
X137892055Y-102139300D01*
X137737410Y-102170061D01*
X137737398Y-102170064D01*
X137591727Y-102230402D01*
X137591714Y-102230409D01*
X137460611Y-102318010D01*
X137460607Y-102318013D01*
X137349113Y-102429507D01*
X137349108Y-102429513D01*
X137279475Y-102533725D01*
X137225863Y-102578529D01*
X137156538Y-102587236D01*
X137093510Y-102557081D01*
X137088693Y-102552514D01*
X136981192Y-102445013D01*
X136981188Y-102445010D01*
X136850085Y-102357409D01*
X136850072Y-102357402D01*
X136704401Y-102297064D01*
X136704389Y-102297061D01*
X136549745Y-102266300D01*
X136549742Y-102266300D01*
X136392058Y-102266300D01*
X136392055Y-102266300D01*
X136237410Y-102297061D01*
X136237398Y-102297064D01*
X136091727Y-102357402D01*
X136091714Y-102357409D01*
X135960611Y-102445010D01*
X135960607Y-102445013D01*
X135849113Y-102556507D01*
X135849110Y-102556511D01*
X135761509Y-102687614D01*
X135761502Y-102687627D01*
X135701164Y-102833298D01*
X135701161Y-102833310D01*
X135670400Y-102987953D01*
X118104200Y-102987953D01*
X118104199Y-102361515D01*
X118104199Y-101637798D01*
X118104198Y-101637781D01*
X118093699Y-101535003D01*
X118093698Y-101535000D01*
X118088721Y-101519980D01*
X118038514Y-101368466D01*
X117946412Y-101219144D01*
X117822356Y-101095088D01*
X117673034Y-101002986D01*
X117506497Y-100947801D01*
X117506495Y-100947800D01*
X117403710Y-100937300D01*
X116103698Y-100937300D01*
X116103681Y-100937301D01*
X116000903Y-100947800D01*
X116000900Y-100947801D01*
X115834368Y-101002985D01*
X115834363Y-101002987D01*
X115685042Y-101095089D01*
X115560989Y-101219142D01*
X115465521Y-101373921D01*
X115413573Y-101420645D01*
X115344610Y-101431868D01*
X115280528Y-101404024D01*
X115272301Y-101396505D01*
X115133486Y-101257690D01*
X114961520Y-101132751D01*
X114772114Y-101036244D01*
X114772113Y-101036243D01*
X114772112Y-101036243D01*
X114569943Y-100970554D01*
X114569941Y-100970553D01*
X114569940Y-100970553D01*
X114408657Y-100945008D01*
X114359987Y-100937300D01*
X114147413Y-100937300D01*
X114098742Y-100945008D01*
X113937460Y-100970553D01*
X113735285Y-101036244D01*
X113545879Y-101132751D01*
X113373913Y-101257690D01*
X113223594Y-101408009D01*
X113223590Y-101408014D01*
X113104018Y-101572593D01*
X113048689Y-101615259D01*
X112979075Y-101621238D01*
X112917280Y-101588633D01*
X112903382Y-101572593D01*
X112783809Y-101408014D01*
X112783805Y-101408009D01*
X112633486Y-101257690D01*
X112461520Y-101132751D01*
X112272114Y-101036244D01*
X112272113Y-101036243D01*
X112272112Y-101036243D01*
X112069943Y-100970554D01*
X112069941Y-100970553D01*
X112069940Y-100970553D01*
X111908657Y-100945008D01*
X111859987Y-100937300D01*
X111647413Y-100937300D01*
X111598742Y-100945008D01*
X111437460Y-100970553D01*
X111235285Y-101036244D01*
X111045879Y-101132751D01*
X110873913Y-101257690D01*
X110723590Y-101408013D01*
X110598651Y-101579979D01*
X110502144Y-101769385D01*
X110436453Y-101971560D01*
X110403200Y-102181513D01*
X101471400Y-102181513D01*
X101471400Y-98674313D01*
X102046600Y-98674313D01*
X102046600Y-98886887D01*
X102079854Y-99096843D01*
X102142676Y-99290189D01*
X102145544Y-99299014D01*
X102242051Y-99488420D01*
X102366990Y-99660386D01*
X102517313Y-99810709D01*
X102689279Y-99935648D01*
X102689281Y-99935649D01*
X102689284Y-99935651D01*
X102878688Y-100032157D01*
X103080857Y-100097846D01*
X103290813Y-100131100D01*
X103290814Y-100131100D01*
X103503386Y-100131100D01*
X103503387Y-100131100D01*
X103713343Y-100097846D01*
X103915512Y-100032157D01*
X104104916Y-99935651D01*
X104126889Y-99919686D01*
X104276886Y-99810709D01*
X104276888Y-99810706D01*
X104276892Y-99810704D01*
X104427204Y-99660392D01*
X104427206Y-99660388D01*
X104427209Y-99660386D01*
X104552148Y-99488420D01*
X104552147Y-99488420D01*
X104552151Y-99488416D01*
X104648657Y-99299012D01*
X104714346Y-99096843D01*
X104747600Y-98886887D01*
X104747600Y-98674313D01*
X104734175Y-98589553D01*
X115170400Y-98589553D01*
X115170400Y-98747246D01*
X115201161Y-98901889D01*
X115201164Y-98901901D01*
X115261502Y-99047572D01*
X115261509Y-99047585D01*
X115349110Y-99178688D01*
X115349113Y-99178692D01*
X115460606Y-99290185D01*
X115460611Y-99290189D01*
X115591714Y-99377790D01*
X115591727Y-99377797D01*
X115737398Y-99438135D01*
X115737403Y-99438137D01*
X115892053Y-99468899D01*
X115892056Y-99468900D01*
X115892058Y-99468900D01*
X116049744Y-99468900D01*
X116049745Y-99468899D01*
X116204397Y-99438137D01*
X116350079Y-99377794D01*
X116350085Y-99377790D01*
X116479380Y-99291398D01*
X116497426Y-99285747D01*
X116513336Y-99275523D01*
X116544295Y-99271071D01*
X116546057Y-99270520D01*
X116548271Y-99270500D01*
X116681240Y-99270500D01*
X116748279Y-99290185D01*
X116768921Y-99306819D01*
X116845007Y-99382905D01*
X116845011Y-99382908D01*
X116976114Y-99470509D01*
X116976127Y-99470516D01*
X117121798Y-99530854D01*
X117121803Y-99530856D01*
X117276453Y-99561618D01*
X117276456Y-99561619D01*
X117276458Y-99561619D01*
X117434144Y-99561619D01*
X117434145Y-99561618D01*
X117588797Y-99530856D01*
X117734479Y-99470513D01*
X117865589Y-99382908D01*
X117977089Y-99271408D01*
X118064694Y-99140298D01*
X118125037Y-98994616D01*
X118155800Y-98839961D01*
X118155800Y-98682277D01*
X118155800Y-98682274D01*
X118155799Y-98682272D01*
X118125038Y-98527629D01*
X118125037Y-98527622D01*
X118086630Y-98434898D01*
X118064697Y-98381946D01*
X118064690Y-98381933D01*
X117977089Y-98250830D01*
X117977086Y-98250826D01*
X117865592Y-98139332D01*
X117865588Y-98139329D01*
X117734485Y-98051728D01*
X117734472Y-98051721D01*
X117588801Y-97991383D01*
X117588789Y-97991380D01*
X117434145Y-97960619D01*
X117434142Y-97960619D01*
X117276458Y-97960619D01*
X117276455Y-97960619D01*
X117121810Y-97991380D01*
X117121798Y-97991383D01*
X116970492Y-98054056D01*
X116970133Y-98053189D01*
X116917792Y-98066300D01*
X116548271Y-98066300D01*
X116481232Y-98046615D01*
X116479380Y-98045402D01*
X116350085Y-97959009D01*
X116350072Y-97959002D01*
X116204401Y-97898664D01*
X116204389Y-97898661D01*
X116049745Y-97867900D01*
X116049742Y-97867900D01*
X115892058Y-97867900D01*
X115892055Y-97867900D01*
X115737410Y-97898661D01*
X115737398Y-97898664D01*
X115591727Y-97959002D01*
X115591714Y-97959009D01*
X115460611Y-98046610D01*
X115460607Y-98046613D01*
X115349113Y-98158107D01*
X115349110Y-98158111D01*
X115261509Y-98289214D01*
X115261502Y-98289227D01*
X115201164Y-98434898D01*
X115201161Y-98434910D01*
X115170400Y-98589553D01*
X104734175Y-98589553D01*
X104724366Y-98527622D01*
X104714347Y-98464361D01*
X104714346Y-98464360D01*
X104714346Y-98464357D01*
X104648657Y-98262188D01*
X104552151Y-98072784D01*
X104552149Y-98072781D01*
X104552148Y-98072779D01*
X104427209Y-97900813D01*
X104276886Y-97750490D01*
X104104920Y-97625551D01*
X103915514Y-97529044D01*
X103915513Y-97529043D01*
X103915512Y-97529043D01*
X103713343Y-97463354D01*
X103713341Y-97463353D01*
X103713340Y-97463353D01*
X103552057Y-97437808D01*
X103503387Y-97430100D01*
X103290813Y-97430100D01*
X103242142Y-97437808D01*
X103080860Y-97463353D01*
X102878685Y-97529044D01*
X102689279Y-97625551D01*
X102517313Y-97750490D01*
X102366990Y-97900813D01*
X102242051Y-98072779D01*
X102145544Y-98262185D01*
X102079853Y-98464360D01*
X102057916Y-98602865D01*
X102046600Y-98674313D01*
X101471400Y-98674313D01*
X101471400Y-96312557D01*
X116995004Y-96312557D01*
X116995004Y-96470250D01*
X117025765Y-96624893D01*
X117025768Y-96624905D01*
X117086106Y-96770576D01*
X117086113Y-96770589D01*
X117173714Y-96901692D01*
X117173717Y-96901696D01*
X117285211Y-97013190D01*
X117285215Y-97013193D01*
X117416318Y-97100794D01*
X117416331Y-97100801D01*
X117537249Y-97150886D01*
X117562007Y-97161141D01*
X117630467Y-97174758D01*
X117714528Y-97191480D01*
X117731284Y-97200244D01*
X117749764Y-97204265D01*
X117774802Y-97223009D01*
X117776439Y-97223865D01*
X117778018Y-97225416D01*
X117812283Y-97259681D01*
X117845768Y-97321004D01*
X117846219Y-97323170D01*
X117876557Y-97475687D01*
X117876560Y-97475697D01*
X117936898Y-97621368D01*
X117936905Y-97621381D01*
X118024506Y-97752484D01*
X118024509Y-97752488D01*
X118136003Y-97863982D01*
X118136007Y-97863985D01*
X118267110Y-97951586D01*
X118267123Y-97951593D01*
X118412794Y-98011931D01*
X118412799Y-98011933D01*
X118567449Y-98042695D01*
X118567452Y-98042696D01*
X118567454Y-98042696D01*
X118725140Y-98042696D01*
X118725141Y-98042695D01*
X118879793Y-98011933D01*
X119025475Y-97951590D01*
X119156585Y-97863985D01*
X119268085Y-97752485D01*
X119355690Y-97621375D01*
X119415521Y-97476928D01*
X119459361Y-97422525D01*
X119482616Y-97409826D01*
X119627073Y-97349991D01*
X119758183Y-97262386D01*
X119869683Y-97150886D01*
X119957288Y-97019776D01*
X120017631Y-96874094D01*
X120048394Y-96719439D01*
X120048394Y-96681309D01*
X131977044Y-96681309D01*
X131977044Y-96839002D01*
X132007805Y-96993645D01*
X132007808Y-96993657D01*
X132068146Y-97139328D01*
X132068153Y-97139341D01*
X132155754Y-97270444D01*
X132155757Y-97270448D01*
X132267251Y-97381942D01*
X132267255Y-97381945D01*
X132398358Y-97469546D01*
X132398371Y-97469553D01*
X132541995Y-97529043D01*
X132544047Y-97529893D01*
X132698697Y-97560655D01*
X132698700Y-97560656D01*
X132698702Y-97560656D01*
X132856388Y-97560656D01*
X132856389Y-97560655D01*
X133011041Y-97529893D01*
X133141883Y-97475697D01*
X133156716Y-97469553D01*
X133156716Y-97469552D01*
X133156723Y-97469550D01*
X133287833Y-97381945D01*
X133399333Y-97270445D01*
X133486938Y-97139335D01*
X133547281Y-96993653D01*
X133577620Y-96841131D01*
X133610005Y-96779220D01*
X133611500Y-96777697D01*
X134137847Y-96251350D01*
X134199168Y-96217867D01*
X134201335Y-96217416D01*
X134250694Y-96207597D01*
X134353857Y-96187077D01*
X134499539Y-96126734D01*
X134630649Y-96039129D01*
X134742149Y-95927629D01*
X134829754Y-95796519D01*
X134890097Y-95650837D01*
X134920860Y-95496182D01*
X134920860Y-95338498D01*
X134920860Y-95338495D01*
X134920859Y-95338493D01*
X134916270Y-95315425D01*
X134890097Y-95183843D01*
X134862130Y-95116324D01*
X134829757Y-95038167D01*
X134829750Y-95038154D01*
X134742149Y-94907051D01*
X134742146Y-94907047D01*
X134630652Y-94795553D01*
X134630648Y-94795550D01*
X134499545Y-94707949D01*
X134499532Y-94707942D01*
X134353861Y-94647604D01*
X134353849Y-94647601D01*
X134199205Y-94616840D01*
X134199202Y-94616840D01*
X134041518Y-94616840D01*
X134041515Y-94616840D01*
X133886870Y-94647601D01*
X133886858Y-94647604D01*
X133741187Y-94707942D01*
X133741174Y-94707949D01*
X133610071Y-94795550D01*
X133610067Y-94795553D01*
X133498573Y-94907047D01*
X133498570Y-94907051D01*
X133410969Y-95038154D01*
X133410962Y-95038167D01*
X133350624Y-95183838D01*
X133350621Y-95183848D01*
X133320283Y-95336365D01*
X133287898Y-95398276D01*
X133286347Y-95399854D01*
X132760058Y-95926143D01*
X132698735Y-95959628D01*
X132696569Y-95960079D01*
X132544052Y-95990417D01*
X132544042Y-95990420D01*
X132398371Y-96050758D01*
X132398358Y-96050765D01*
X132267255Y-96138366D01*
X132267251Y-96138369D01*
X132155757Y-96249863D01*
X132155754Y-96249867D01*
X132068153Y-96380970D01*
X132068146Y-96380983D01*
X132007808Y-96526654D01*
X132007805Y-96526666D01*
X131977044Y-96681309D01*
X120048394Y-96681309D01*
X120048394Y-96561755D01*
X120048394Y-96561752D01*
X120048393Y-96561750D01*
X120030192Y-96470250D01*
X120017631Y-96407100D01*
X120006808Y-96380970D01*
X119957291Y-96261424D01*
X119957284Y-96261411D01*
X119869683Y-96130308D01*
X119869680Y-96130304D01*
X119758186Y-96018810D01*
X119758182Y-96018807D01*
X119627079Y-95931206D01*
X119627066Y-95931199D01*
X119481395Y-95870861D01*
X119481383Y-95870858D01*
X119326739Y-95840097D01*
X119326736Y-95840097D01*
X119281999Y-95840097D01*
X119214960Y-95820412D01*
X119169205Y-95767608D01*
X119160382Y-95740288D01*
X119142589Y-95650841D01*
X119130929Y-95592221D01*
X119119897Y-95565588D01*
X119070589Y-95446545D01*
X119070582Y-95446532D01*
X118982981Y-95315429D01*
X118982978Y-95315425D01*
X118871484Y-95203931D01*
X118871480Y-95203928D01*
X118740377Y-95116327D01*
X118740364Y-95116320D01*
X118594693Y-95055982D01*
X118594681Y-95055979D01*
X118440037Y-95025218D01*
X118440034Y-95025218D01*
X118282350Y-95025218D01*
X118282347Y-95025218D01*
X118127702Y-95055979D01*
X118127690Y-95055982D01*
X117982019Y-95116320D01*
X117982006Y-95116327D01*
X117850903Y-95203928D01*
X117850899Y-95203931D01*
X117739405Y-95315425D01*
X117739402Y-95315429D01*
X117651801Y-95446532D01*
X117651796Y-95446542D01*
X117602486Y-95565588D01*
X117558645Y-95619991D01*
X117535378Y-95632696D01*
X117416328Y-95682008D01*
X117416318Y-95682013D01*
X117285215Y-95769614D01*
X117285211Y-95769617D01*
X117173717Y-95881111D01*
X117173714Y-95881115D01*
X117086113Y-96012218D01*
X117086106Y-96012231D01*
X117025768Y-96157902D01*
X117025765Y-96157914D01*
X116995004Y-96312557D01*
X101471400Y-96312557D01*
X101471400Y-92798634D01*
X105800400Y-92798634D01*
X105800400Y-92950165D01*
X105839619Y-93096536D01*
X105877502Y-93162150D01*
X105915385Y-93227765D01*
X106022535Y-93334915D01*
X106153765Y-93410681D01*
X106300134Y-93449900D01*
X106300136Y-93449900D01*
X106451664Y-93449900D01*
X106451666Y-93449900D01*
X106598035Y-93410681D01*
X106729265Y-93334915D01*
X106836415Y-93227765D01*
X106912181Y-93096535D01*
X106951400Y-92950166D01*
X106951400Y-92798634D01*
X106912181Y-92652265D01*
X106836415Y-92521035D01*
X106729265Y-92413885D01*
X106663650Y-92376002D01*
X106598036Y-92338119D01*
X106524850Y-92318509D01*
X106451666Y-92298900D01*
X106300134Y-92298900D01*
X106153763Y-92338119D01*
X106022535Y-92413885D01*
X106022532Y-92413887D01*
X105915387Y-92521032D01*
X105915385Y-92521035D01*
X105839619Y-92652263D01*
X105800400Y-92798634D01*
X101471400Y-92798634D01*
X101471400Y-89589553D01*
X136568800Y-89589553D01*
X136568800Y-89747246D01*
X136599561Y-89901889D01*
X136599564Y-89901901D01*
X136659902Y-90047571D01*
X136659912Y-90047590D01*
X136660668Y-90048721D01*
X136660881Y-90049402D01*
X136662779Y-90052953D01*
X136662105Y-90053313D01*
X136681539Y-90115401D01*
X136663046Y-90182779D01*
X136660668Y-90186479D01*
X136659912Y-90187609D01*
X136659902Y-90187628D01*
X136599564Y-90333298D01*
X136599561Y-90333310D01*
X136568800Y-90487953D01*
X136568800Y-90645646D01*
X136599561Y-90800289D01*
X136599564Y-90800301D01*
X136659902Y-90945972D01*
X136659909Y-90945985D01*
X136747510Y-91077088D01*
X136747513Y-91077092D01*
X136859006Y-91188585D01*
X136859011Y-91188589D01*
X136990114Y-91276190D01*
X136990127Y-91276197D01*
X137135798Y-91336535D01*
X137135803Y-91336537D01*
X137290453Y-91367299D01*
X137290456Y-91367300D01*
X137290458Y-91367300D01*
X137448144Y-91367300D01*
X137448145Y-91367299D01*
X137602797Y-91336537D01*
X137748479Y-91276194D01*
X137877780Y-91189798D01*
X137895826Y-91184147D01*
X137911736Y-91173923D01*
X137942695Y-91169471D01*
X137944457Y-91168920D01*
X137946671Y-91168900D01*
X137995129Y-91168900D01*
X138062168Y-91188585D01*
X138064020Y-91189798D01*
X138193314Y-91276190D01*
X138193327Y-91276197D01*
X138338998Y-91336535D01*
X138339003Y-91336537D01*
X138493653Y-91367299D01*
X138493656Y-91367300D01*
X138493658Y-91367300D01*
X138651344Y-91367300D01*
X138651345Y-91367299D01*
X138805997Y-91336537D01*
X138951679Y-91276194D01*
X139082789Y-91188589D01*
X139082791Y-91188587D01*
X139082794Y-91188585D01*
X139194286Y-91077092D01*
X139194289Y-91077089D01*
X139281894Y-90945979D01*
X139342237Y-90800297D01*
X139373000Y-90645642D01*
X139373000Y-90487958D01*
X139373000Y-90487955D01*
X139372999Y-90487953D01*
X139342238Y-90333310D01*
X139342237Y-90333303D01*
X139281897Y-90187628D01*
X139281897Y-90187627D01*
X139281890Y-90187614D01*
X139194289Y-90056511D01*
X139194286Y-90056507D01*
X139082792Y-89945013D01*
X139082784Y-89945007D01*
X139045212Y-89919902D01*
X139000406Y-89866290D01*
X138991699Y-89796965D01*
X139021853Y-89733938D01*
X139045212Y-89713698D01*
X139071779Y-89695945D01*
X139082789Y-89688589D01*
X139194289Y-89577089D01*
X139281894Y-89445979D01*
X139342237Y-89300297D01*
X139373000Y-89145642D01*
X139373000Y-88987958D01*
X139373000Y-88987955D01*
X139372999Y-88987953D01*
X139355238Y-88898663D01*
X139342237Y-88833303D01*
X139342235Y-88833298D01*
X139281897Y-88687627D01*
X139281890Y-88687614D01*
X139194289Y-88556511D01*
X139194286Y-88556507D01*
X139082792Y-88445013D01*
X139082788Y-88445010D01*
X138951685Y-88357409D01*
X138951672Y-88357402D01*
X138806001Y-88297064D01*
X138805989Y-88297061D01*
X138651345Y-88266300D01*
X138651342Y-88266300D01*
X138493658Y-88266300D01*
X138493655Y-88266300D01*
X138339010Y-88297061D01*
X138338998Y-88297064D01*
X138193327Y-88357402D01*
X138193314Y-88357409D01*
X138062211Y-88445010D01*
X138062207Y-88445013D01*
X137950713Y-88556507D01*
X137950710Y-88556511D01*
X137863109Y-88687614D01*
X137863102Y-88687627D01*
X137802760Y-88833307D01*
X137802538Y-88834042D01*
X137802317Y-88834379D01*
X137800432Y-88838930D01*
X137799568Y-88838572D01*
X137764234Y-88892476D01*
X137700418Y-88920924D01*
X137636432Y-88912594D01*
X137602801Y-88898664D01*
X137602789Y-88898661D01*
X137448145Y-88867900D01*
X137448142Y-88867900D01*
X137290458Y-88867900D01*
X137290455Y-88867900D01*
X137135810Y-88898661D01*
X137135798Y-88898664D01*
X136990127Y-88959002D01*
X136990114Y-88959009D01*
X136859011Y-89046610D01*
X136859007Y-89046613D01*
X136747513Y-89158107D01*
X136747510Y-89158111D01*
X136659909Y-89289214D01*
X136659902Y-89289227D01*
X136599564Y-89434898D01*
X136599561Y-89434910D01*
X136568800Y-89589553D01*
X101471400Y-89589553D01*
X101471400Y-87018634D01*
X105800400Y-87018634D01*
X105800400Y-87170165D01*
X105839619Y-87316536D01*
X105877502Y-87382150D01*
X105915385Y-87447765D01*
X106022535Y-87554915D01*
X106153765Y-87630681D01*
X106300134Y-87669900D01*
X106300136Y-87669900D01*
X106451664Y-87669900D01*
X106451666Y-87669900D01*
X106598035Y-87630681D01*
X106729265Y-87554915D01*
X106836415Y-87447765D01*
X106912181Y-87316535D01*
X106951400Y-87170166D01*
X106951400Y-87018634D01*
X106912181Y-86872265D01*
X106909314Y-86867300D01*
X106891552Y-86836535D01*
X106836415Y-86741035D01*
X106729265Y-86633885D01*
X106663650Y-86596002D01*
X106598036Y-86558119D01*
X106524850Y-86538509D01*
X106451666Y-86518900D01*
X106300134Y-86518900D01*
X106153763Y-86558119D01*
X106022535Y-86633885D01*
X106022532Y-86633887D01*
X105915387Y-86741032D01*
X105915385Y-86741035D01*
X105839619Y-86872263D01*
X105800400Y-87018634D01*
X101471400Y-87018634D01*
X101471400Y-83921458D01*
X109170400Y-83921458D01*
X109170400Y-84079151D01*
X109201161Y-84233794D01*
X109201164Y-84233806D01*
X109261502Y-84379477D01*
X109261509Y-84379490D01*
X109349110Y-84510593D01*
X109349113Y-84510597D01*
X109460607Y-84622091D01*
X109460611Y-84622094D01*
X109591714Y-84709695D01*
X109591721Y-84709699D01*
X109662607Y-84739060D01*
X109717009Y-84782900D01*
X109739075Y-84849194D01*
X109729716Y-84901072D01*
X109701163Y-84970007D01*
X109701161Y-84970015D01*
X109670400Y-85124658D01*
X109670400Y-85282351D01*
X109701161Y-85436994D01*
X109701164Y-85437006D01*
X109761502Y-85582677D01*
X109761509Y-85582690D01*
X109849110Y-85713793D01*
X109849113Y-85713797D01*
X109960607Y-85825291D01*
X109960611Y-85825294D01*
X110091714Y-85912895D01*
X110091727Y-85912902D01*
X110237398Y-85973240D01*
X110237403Y-85973242D01*
X110392053Y-86004004D01*
X110392056Y-86004005D01*
X110392058Y-86004005D01*
X110549744Y-86004005D01*
X110549745Y-86004004D01*
X110704397Y-85973242D01*
X110850079Y-85912899D01*
X110981189Y-85825294D01*
X111092689Y-85713794D01*
X111180294Y-85582684D01*
X111188435Y-85563031D01*
X111198084Y-85539735D01*
X111240637Y-85437002D01*
X111271400Y-85282347D01*
X111271400Y-85124663D01*
X111271400Y-85124660D01*
X111247808Y-85006058D01*
X111247808Y-85006057D01*
X111244379Y-84988821D01*
X111244206Y-84987953D01*
X120068800Y-84987953D01*
X120068800Y-85145646D01*
X120099561Y-85300289D01*
X120099564Y-85300301D01*
X120159902Y-85445972D01*
X120159909Y-85445985D01*
X120247510Y-85577088D01*
X120247513Y-85577092D01*
X120359007Y-85688586D01*
X120359011Y-85688589D01*
X120490114Y-85776190D01*
X120490127Y-85776197D01*
X120627983Y-85833298D01*
X120635803Y-85836537D01*
X120790453Y-85867299D01*
X120790456Y-85867300D01*
X120790458Y-85867300D01*
X120948144Y-85867300D01*
X120948145Y-85867299D01*
X121102797Y-85836537D01*
X121248479Y-85776194D01*
X121272914Y-85759866D01*
X121339590Y-85738987D01*
X121406970Y-85757469D01*
X121429488Y-85775286D01*
X121738487Y-86084285D01*
X121771972Y-86145608D01*
X121772423Y-86147774D01*
X121802761Y-86300291D01*
X121802764Y-86300301D01*
X121863102Y-86445972D01*
X121863109Y-86445985D01*
X121950710Y-86577088D01*
X121950713Y-86577092D01*
X122062207Y-86688586D01*
X122062211Y-86688589D01*
X122193314Y-86776190D01*
X122193327Y-86776197D01*
X122338998Y-86836535D01*
X122339003Y-86836537D01*
X122493653Y-86867299D01*
X122493656Y-86867300D01*
X122493658Y-86867300D01*
X122651344Y-86867300D01*
X122651345Y-86867299D01*
X122805997Y-86836537D01*
X122951679Y-86776194D01*
X123082789Y-86688589D01*
X123194289Y-86577089D01*
X123281894Y-86445979D01*
X123342237Y-86300297D01*
X123373000Y-86145642D01*
X123373000Y-85987958D01*
X123373000Y-85987955D01*
X123372999Y-85987953D01*
X123348216Y-85863362D01*
X123342237Y-85833303D01*
X123310826Y-85757469D01*
X123281897Y-85687627D01*
X123281890Y-85687614D01*
X123194289Y-85556511D01*
X123194286Y-85556507D01*
X123082792Y-85445013D01*
X123082788Y-85445010D01*
X122951685Y-85357409D01*
X122951672Y-85357402D01*
X122806001Y-85297064D01*
X122805991Y-85297061D01*
X122653474Y-85266723D01*
X122591563Y-85234338D01*
X122589985Y-85232787D01*
X122048351Y-84691153D01*
X129670400Y-84691153D01*
X129670400Y-84848846D01*
X129701161Y-85003489D01*
X129701164Y-85003501D01*
X129761502Y-85149172D01*
X129761509Y-85149185D01*
X129849110Y-85280288D01*
X129849113Y-85280292D01*
X129960607Y-85391786D01*
X129960611Y-85391789D01*
X130091714Y-85479390D01*
X130091727Y-85479397D01*
X130237398Y-85539735D01*
X130237403Y-85539737D01*
X130392053Y-85570499D01*
X130392056Y-85570500D01*
X130392058Y-85570500D01*
X130549744Y-85570500D01*
X130549745Y-85570499D01*
X130704397Y-85539737D01*
X130850079Y-85479394D01*
X130981189Y-85391789D01*
X131092689Y-85280289D01*
X131180294Y-85149179D01*
X131240637Y-85003497D01*
X131271400Y-84848842D01*
X131271400Y-84691158D01*
X131271400Y-84691155D01*
X131271399Y-84691153D01*
X131258906Y-84628346D01*
X131240637Y-84536503D01*
X131240635Y-84536498D01*
X131180297Y-84390827D01*
X131180290Y-84390814D01*
X131126523Y-84310346D01*
X131105645Y-84243668D01*
X131124130Y-84176288D01*
X131141940Y-84153777D01*
X131218629Y-84077089D01*
X131306234Y-83945979D01*
X131366577Y-83800297D01*
X131397340Y-83645642D01*
X131397340Y-83487958D01*
X131397340Y-83487955D01*
X131397339Y-83487953D01*
X131390286Y-83452496D01*
X131366577Y-83333303D01*
X131349016Y-83290907D01*
X131306237Y-83187627D01*
X131306230Y-83187614D01*
X131218629Y-83056511D01*
X131218626Y-83056507D01*
X131107132Y-82945013D01*
X131107128Y-82945010D01*
X130976025Y-82857409D01*
X130976012Y-82857402D01*
X130830341Y-82797064D01*
X130830329Y-82797061D01*
X130675685Y-82766300D01*
X130675682Y-82766300D01*
X130517998Y-82766300D01*
X130517995Y-82766300D01*
X130363350Y-82797061D01*
X130363338Y-82797064D01*
X130217667Y-82857402D01*
X130217654Y-82857409D01*
X130086551Y-82945010D01*
X130086547Y-82945013D01*
X129975053Y-83056507D01*
X129975050Y-83056511D01*
X129887449Y-83187614D01*
X129887442Y-83187627D01*
X129827104Y-83333298D01*
X129827101Y-83333310D01*
X129796340Y-83487953D01*
X129796340Y-83645646D01*
X129827101Y-83800289D01*
X129827104Y-83800301D01*
X129859361Y-83878176D01*
X129868800Y-83925628D01*
X129868800Y-84192628D01*
X129849115Y-84259667D01*
X129847902Y-84261519D01*
X129761509Y-84390814D01*
X129761502Y-84390827D01*
X129701164Y-84536498D01*
X129701161Y-84536510D01*
X129670400Y-84691153D01*
X122048351Y-84691153D01*
X121942197Y-84584999D01*
X121921867Y-84573262D01*
X121901536Y-84561524D01*
X121804904Y-84505734D01*
X121804903Y-84505733D01*
X121753857Y-84492055D01*
X121651768Y-84464700D01*
X121651766Y-84464700D01*
X121446671Y-84464700D01*
X121379632Y-84445015D01*
X121377780Y-84443802D01*
X121248485Y-84357409D01*
X121248472Y-84357402D01*
X121102801Y-84297064D01*
X121102789Y-84297061D01*
X120948145Y-84266300D01*
X120948142Y-84266300D01*
X120790458Y-84266300D01*
X120790455Y-84266300D01*
X120635810Y-84297061D01*
X120635798Y-84297064D01*
X120490127Y-84357402D01*
X120490114Y-84357409D01*
X120359011Y-84445010D01*
X120359007Y-84445013D01*
X120247513Y-84556507D01*
X120247510Y-84556511D01*
X120159909Y-84687614D01*
X120159902Y-84687627D01*
X120099564Y-84833298D01*
X120099561Y-84833310D01*
X120068800Y-84987953D01*
X111244206Y-84987953D01*
X111240637Y-84970008D01*
X111190595Y-84849194D01*
X111180297Y-84824332D01*
X111180290Y-84824319D01*
X111093898Y-84695024D01*
X111073020Y-84628346D01*
X111073000Y-84626133D01*
X111073000Y-84421038D01*
X111064903Y-84390821D01*
X111031967Y-84267903D01*
X110952700Y-84130607D01*
X110840598Y-84018505D01*
X110804912Y-83982819D01*
X110771427Y-83921496D01*
X110770976Y-83919329D01*
X110740638Y-83766815D01*
X110740637Y-83766808D01*
X110700776Y-83670574D01*
X110680297Y-83621132D01*
X110680290Y-83621119D01*
X110592689Y-83490016D01*
X110592686Y-83490012D01*
X110481192Y-83378518D01*
X110481188Y-83378515D01*
X110350085Y-83290914D01*
X110350072Y-83290907D01*
X110204401Y-83230569D01*
X110204389Y-83230566D01*
X110049745Y-83199805D01*
X110049742Y-83199805D01*
X109892058Y-83199805D01*
X109892055Y-83199805D01*
X109737410Y-83230566D01*
X109737398Y-83230569D01*
X109591727Y-83290907D01*
X109591714Y-83290914D01*
X109460611Y-83378515D01*
X109460607Y-83378518D01*
X109349113Y-83490012D01*
X109349110Y-83490016D01*
X109261509Y-83621119D01*
X109261502Y-83621132D01*
X109201164Y-83766803D01*
X109201161Y-83766815D01*
X109170400Y-83921458D01*
X101471400Y-83921458D01*
X101471400Y-80805554D01*
X130769200Y-80805554D01*
X130769200Y-80963247D01*
X130799961Y-81117890D01*
X130799964Y-81117902D01*
X130860302Y-81263573D01*
X130860309Y-81263586D01*
X130947910Y-81394689D01*
X130947913Y-81394693D01*
X131059407Y-81506187D01*
X131059411Y-81506190D01*
X131190514Y-81593791D01*
X131190527Y-81593798D01*
X131293973Y-81636646D01*
X131336203Y-81654138D01*
X131490853Y-81684900D01*
X131490856Y-81684901D01*
X131490858Y-81684901D01*
X131648543Y-81684901D01*
X131684229Y-81677802D01*
X131717004Y-81671282D01*
X131741195Y-81668900D01*
X131831367Y-81668900D01*
X133393529Y-81668900D01*
X133460568Y-81688585D01*
X133462420Y-81689798D01*
X133591714Y-81776190D01*
X133591727Y-81776197D01*
X133729583Y-81833298D01*
X133737403Y-81836537D01*
X133892053Y-81867299D01*
X133892056Y-81867300D01*
X133892058Y-81867300D01*
X134049744Y-81867300D01*
X134049745Y-81867299D01*
X134204397Y-81836537D01*
X134350079Y-81776194D01*
X134481189Y-81688589D01*
X134481191Y-81688587D01*
X134481194Y-81688585D01*
X134592686Y-81577092D01*
X134592689Y-81577089D01*
X134680294Y-81445979D01*
X134740637Y-81300297D01*
X134771400Y-81145642D01*
X134771400Y-80987958D01*
X134771400Y-80987955D01*
X134771399Y-80987953D01*
X134751192Y-80886366D01*
X134740637Y-80833303D01*
X134721898Y-80788063D01*
X134680297Y-80687627D01*
X134680290Y-80687614D01*
X134592689Y-80556511D01*
X134592686Y-80556507D01*
X134481192Y-80445013D01*
X134481188Y-80445010D01*
X134350085Y-80357409D01*
X134350072Y-80357402D01*
X134204401Y-80297064D01*
X134204389Y-80297061D01*
X134049745Y-80266300D01*
X134049742Y-80266300D01*
X133892058Y-80266300D01*
X133892055Y-80266300D01*
X133737410Y-80297061D01*
X133737398Y-80297064D01*
X133591727Y-80357402D01*
X133591714Y-80357409D01*
X133462420Y-80443802D01*
X133395743Y-80464680D01*
X133393529Y-80464700D01*
X132318298Y-80464700D01*
X132251259Y-80445015D01*
X132215196Y-80409591D01*
X132191489Y-80374112D01*
X132191486Y-80374108D01*
X132079992Y-80262614D01*
X132079988Y-80262611D01*
X131948885Y-80175010D01*
X131948872Y-80175003D01*
X131803201Y-80114665D01*
X131803189Y-80114662D01*
X131648545Y-80083901D01*
X131648542Y-80083901D01*
X131490858Y-80083901D01*
X131490855Y-80083901D01*
X131336210Y-80114662D01*
X131336198Y-80114665D01*
X131190527Y-80175003D01*
X131190514Y-80175010D01*
X131059411Y-80262611D01*
X131059407Y-80262614D01*
X130947913Y-80374108D01*
X130947910Y-80374112D01*
X130860309Y-80505215D01*
X130860302Y-80505228D01*
X130799964Y-80650899D01*
X130799961Y-80650911D01*
X130769200Y-80805554D01*
X101471400Y-80805554D01*
X101471400Y-69108713D01*
X104053200Y-69108713D01*
X104053200Y-69321286D01*
X104086130Y-69529202D01*
X104086454Y-69531243D01*
X104140863Y-69698697D01*
X104152144Y-69733414D01*
X104248651Y-69922820D01*
X104373590Y-70094786D01*
X104523913Y-70245109D01*
X104695882Y-70370050D01*
X104704646Y-70374516D01*
X104755442Y-70422491D01*
X104772236Y-70490312D01*
X104749698Y-70556447D01*
X104704646Y-70595484D01*
X104695882Y-70599949D01*
X104523913Y-70724890D01*
X104373590Y-70875213D01*
X104248651Y-71047179D01*
X104152144Y-71236585D01*
X104086453Y-71438760D01*
X104053200Y-71648713D01*
X104053200Y-71861286D01*
X104080008Y-72030549D01*
X104086454Y-72071243D01*
X104146985Y-72257538D01*
X104152144Y-72273414D01*
X104248651Y-72462820D01*
X104373590Y-72634786D01*
X104523913Y-72785109D01*
X104695882Y-72910050D01*
X104704646Y-72914516D01*
X104755442Y-72962491D01*
X104772236Y-73030312D01*
X104749698Y-73096447D01*
X104704646Y-73135484D01*
X104695882Y-73139949D01*
X104523913Y-73264890D01*
X104373590Y-73415213D01*
X104248651Y-73587179D01*
X104152144Y-73776585D01*
X104086453Y-73978760D01*
X104053200Y-74188713D01*
X104053200Y-74401286D01*
X104083419Y-74592085D01*
X104086454Y-74611243D01*
X104146831Y-74797064D01*
X104152144Y-74813414D01*
X104248651Y-75002820D01*
X104373590Y-75174786D01*
X104523913Y-75325109D01*
X104695879Y-75450048D01*
X104695881Y-75450049D01*
X104695884Y-75450051D01*
X104885288Y-75546557D01*
X105087457Y-75612246D01*
X105297413Y-75645500D01*
X105297414Y-75645500D01*
X105509986Y-75645500D01*
X105509987Y-75645500D01*
X105719943Y-75612246D01*
X105922112Y-75546557D01*
X106111516Y-75450051D01*
X106135976Y-75432280D01*
X106283486Y-75325109D01*
X106283488Y-75325106D01*
X106283492Y-75325104D01*
X106433804Y-75174792D01*
X106433806Y-75174788D01*
X106433809Y-75174786D01*
X106542786Y-75024789D01*
X106558751Y-75002816D01*
X106563214Y-74994054D01*
X106611188Y-74943259D01*
X106679008Y-74926463D01*
X106745144Y-74948999D01*
X106784186Y-74994056D01*
X106788651Y-75002820D01*
X106913590Y-75174786D01*
X107063913Y-75325109D01*
X107235882Y-75450050D01*
X107244646Y-75454516D01*
X107295442Y-75502491D01*
X107312236Y-75570312D01*
X107289698Y-75636447D01*
X107244646Y-75675484D01*
X107235882Y-75679949D01*
X107063913Y-75804890D01*
X106913590Y-75955213D01*
X106788651Y-76127179D01*
X106692144Y-76316585D01*
X106626453Y-76518760D01*
X106593200Y-76728713D01*
X106593200Y-76941286D01*
X106625567Y-77145646D01*
X106626454Y-77151243D01*
X106682185Y-77322766D01*
X106692144Y-77353414D01*
X106788651Y-77542820D01*
X106913590Y-77714786D01*
X107063913Y-77865109D01*
X107235879Y-77990048D01*
X107235881Y-77990049D01*
X107235884Y-77990051D01*
X107425288Y-78086557D01*
X107627457Y-78152246D01*
X107837413Y-78185500D01*
X107837414Y-78185500D01*
X108049986Y-78185500D01*
X108049987Y-78185500D01*
X108259943Y-78152246D01*
X108462112Y-78086557D01*
X108651516Y-77990051D01*
X108752491Y-77916689D01*
X108823486Y-77865109D01*
X108823488Y-77865106D01*
X108823492Y-77865104D01*
X108973804Y-77714792D01*
X108973806Y-77714788D01*
X108973809Y-77714786D01*
X109098748Y-77542820D01*
X109098747Y-77542820D01*
X109098751Y-77542816D01*
X109195257Y-77353412D01*
X109260946Y-77151243D01*
X109261833Y-77145646D01*
X109266694Y-77114953D01*
X116070394Y-77114953D01*
X116070394Y-77272646D01*
X116101155Y-77427289D01*
X116101158Y-77427301D01*
X116161496Y-77572972D01*
X116161503Y-77572985D01*
X116249104Y-77704088D01*
X116249107Y-77704092D01*
X116360601Y-77815586D01*
X116360605Y-77815589D01*
X116491708Y-77903190D01*
X116491721Y-77903197D01*
X116596577Y-77946629D01*
X116637397Y-77963537D01*
X116760144Y-77987953D01*
X116792047Y-77994299D01*
X116792050Y-77994300D01*
X116792052Y-77994300D01*
X116949738Y-77994300D01*
X116949739Y-77994299D01*
X117104391Y-77963537D01*
X117250073Y-77903194D01*
X117318600Y-77857406D01*
X117328410Y-77850851D01*
X117395087Y-77829973D01*
X117433295Y-77835292D01*
X117437403Y-77836538D01*
X117592050Y-77867299D01*
X117592053Y-77867300D01*
X117592055Y-77867300D01*
X117749741Y-77867300D01*
X117749742Y-77867299D01*
X117904394Y-77836537D01*
X118023447Y-77787223D01*
X118092914Y-77779755D01*
X118118347Y-77787222D01*
X118237403Y-77836537D01*
X118381018Y-77865104D01*
X118392053Y-77867299D01*
X118392056Y-77867300D01*
X118392058Y-77867300D01*
X118549744Y-77867300D01*
X118549745Y-77867299D01*
X118704397Y-77836537D01*
X118850079Y-77776194D01*
X118902010Y-77741494D01*
X118968685Y-77720616D01*
X119036065Y-77739100D01*
X119039763Y-77741476D01*
X119091721Y-77776194D01*
X119091723Y-77776195D01*
X119091725Y-77776196D01*
X119234397Y-77835292D01*
X119237403Y-77836537D01*
X119381018Y-77865104D01*
X119392053Y-77867299D01*
X119392056Y-77867300D01*
X119392058Y-77867300D01*
X119549744Y-77867300D01*
X119549745Y-77867299D01*
X119704397Y-77836537D01*
X119847411Y-77777299D01*
X119850072Y-77776197D01*
X119850072Y-77776196D01*
X119850079Y-77776194D01*
X119981189Y-77688589D01*
X120092689Y-77577089D01*
X120180294Y-77445979D01*
X120180695Y-77445011D01*
X120185603Y-77433161D01*
X126681600Y-77433161D01*
X126681600Y-77590854D01*
X126712361Y-77745497D01*
X126712364Y-77745509D01*
X126772702Y-77891180D01*
X126772709Y-77891193D01*
X126860310Y-78022296D01*
X126860313Y-78022300D01*
X126971805Y-78133792D01*
X126976515Y-78137657D01*
X126975681Y-78138673D01*
X127016153Y-78187091D01*
X127024867Y-78256415D01*
X127005564Y-78305483D01*
X126933724Y-78412998D01*
X126933717Y-78413011D01*
X126873379Y-78558682D01*
X126873376Y-78558694D01*
X126842615Y-78713337D01*
X126842615Y-78871030D01*
X126873376Y-79025673D01*
X126873379Y-79025685D01*
X126933717Y-79171356D01*
X126933724Y-79171369D01*
X127021325Y-79302472D01*
X127021328Y-79302476D01*
X127132822Y-79413970D01*
X127132826Y-79413973D01*
X127263929Y-79501574D01*
X127263942Y-79501581D01*
X127409613Y-79561919D01*
X127409618Y-79561921D01*
X127522044Y-79584284D01*
X127564268Y-79592683D01*
X127564271Y-79592684D01*
X127564273Y-79592684D01*
X127721959Y-79592684D01*
X127721960Y-79592683D01*
X127876612Y-79561921D01*
X128022294Y-79501578D01*
X128153404Y-79413973D01*
X128264904Y-79302473D01*
X128352509Y-79171363D01*
X128412852Y-79025681D01*
X128443615Y-78871026D01*
X128443615Y-78713342D01*
X128443615Y-78713339D01*
X128443614Y-78713337D01*
X128430149Y-78645644D01*
X128412852Y-78558687D01*
X128383553Y-78487953D01*
X131513700Y-78487953D01*
X131513700Y-78645646D01*
X131544461Y-78800289D01*
X131544464Y-78800301D01*
X131604802Y-78945972D01*
X131604809Y-78945985D01*
X131692410Y-79077088D01*
X131692413Y-79077092D01*
X131803906Y-79188585D01*
X131803911Y-79188589D01*
X131935014Y-79276190D01*
X131935027Y-79276197D01*
X132072883Y-79333298D01*
X132080703Y-79336537D01*
X132224881Y-79365216D01*
X132235353Y-79367299D01*
X132235356Y-79367300D01*
X132235358Y-79367300D01*
X132393044Y-79367300D01*
X132393045Y-79367299D01*
X132547697Y-79336537D01*
X132693379Y-79276194D01*
X132822680Y-79189798D01*
X132840726Y-79184147D01*
X132856636Y-79173923D01*
X132887595Y-79169471D01*
X132889357Y-79168920D01*
X132891571Y-79168900D01*
X132940029Y-79168900D01*
X133007068Y-79188585D01*
X133008920Y-79189798D01*
X133138214Y-79276190D01*
X133138227Y-79276197D01*
X133276083Y-79333298D01*
X133283903Y-79336537D01*
X133428081Y-79365216D01*
X133438553Y-79367299D01*
X133438556Y-79367300D01*
X133438558Y-79367300D01*
X133596244Y-79367300D01*
X133596245Y-79367299D01*
X133750897Y-79336537D01*
X133896579Y-79276194D01*
X134027689Y-79188589D01*
X134027691Y-79188587D01*
X134027694Y-79188585D01*
X134139186Y-79077092D01*
X134139189Y-79077089D01*
X134226794Y-78945979D01*
X134232224Y-78932871D01*
X134259992Y-78865832D01*
X134287137Y-78800297D01*
X134317900Y-78645642D01*
X134317900Y-78487958D01*
X134317900Y-78487955D01*
X134317899Y-78487953D01*
X134307348Y-78434910D01*
X134287137Y-78333303D01*
X134255289Y-78256415D01*
X134226797Y-78187627D01*
X134226790Y-78187614D01*
X134139189Y-78056511D01*
X134139186Y-78056507D01*
X134027692Y-77945013D01*
X134027688Y-77945010D01*
X133896585Y-77857409D01*
X133896570Y-77857401D01*
X133847946Y-77837260D01*
X133793543Y-77793419D01*
X133771479Y-77727124D01*
X133771400Y-77722700D01*
X133771400Y-77589555D01*
X133771399Y-77589553D01*
X133763811Y-77551407D01*
X133740637Y-77434903D01*
X133720527Y-77386353D01*
X142170400Y-77386353D01*
X142170400Y-77544046D01*
X142201161Y-77698689D01*
X142201164Y-77698701D01*
X142261502Y-77844372D01*
X142261509Y-77844385D01*
X142347902Y-77973680D01*
X142353552Y-77991726D01*
X142363777Y-78007636D01*
X142368228Y-78038595D01*
X142368780Y-78040357D01*
X142368800Y-78042571D01*
X142368800Y-78091028D01*
X142349115Y-78158067D01*
X142347902Y-78159919D01*
X142261509Y-78289214D01*
X142261502Y-78289227D01*
X142201164Y-78434898D01*
X142201161Y-78434910D01*
X142170400Y-78589553D01*
X142170400Y-78747246D01*
X142201161Y-78901889D01*
X142201164Y-78901901D01*
X142261502Y-79047572D01*
X142261509Y-79047585D01*
X142349110Y-79178688D01*
X142349113Y-79178692D01*
X142460607Y-79290186D01*
X142460611Y-79290189D01*
X142591714Y-79377790D01*
X142591727Y-79377797D01*
X142679058Y-79413970D01*
X142737403Y-79438137D01*
X142892053Y-79468899D01*
X142892056Y-79468900D01*
X142892058Y-79468900D01*
X143049744Y-79468900D01*
X143049745Y-79468899D01*
X143204397Y-79438137D01*
X143350079Y-79377794D01*
X143481189Y-79290189D01*
X143592689Y-79178689D01*
X143680294Y-79047579D01*
X143740637Y-78901897D01*
X143771400Y-78747242D01*
X143771400Y-78589558D01*
X143771400Y-78589555D01*
X143771399Y-78589553D01*
X143765258Y-78558682D01*
X143740637Y-78434903D01*
X143740406Y-78434346D01*
X143680297Y-78289227D01*
X143680290Y-78289214D01*
X143593898Y-78159919D01*
X143588247Y-78141872D01*
X143578023Y-78125963D01*
X143573571Y-78095001D01*
X143573020Y-78093241D01*
X143573000Y-78091028D01*
X143573000Y-78042571D01*
X143592685Y-77975532D01*
X143593898Y-77973680D01*
X143680290Y-77844385D01*
X143680290Y-77844384D01*
X143680294Y-77844379D01*
X143684879Y-77833311D01*
X143708537Y-77776194D01*
X143740637Y-77698697D01*
X143751486Y-77644151D01*
X143783869Y-77582243D01*
X143844585Y-77547668D01*
X143914354Y-77551407D01*
X143943572Y-77566314D01*
X143952830Y-77572708D01*
X143960611Y-77580489D01*
X144067628Y-77651996D01*
X144068425Y-77652546D01*
X144089838Y-77678984D01*
X144111652Y-77705086D01*
X144111775Y-77706070D01*
X144112400Y-77706841D01*
X144116122Y-77740679D01*
X144120359Y-77774411D01*
X144119979Y-77775746D01*
X144120040Y-77776292D01*
X144119538Y-77777299D01*
X144112518Y-77802024D01*
X144099563Y-77833303D01*
X144099562Y-77833306D01*
X144099560Y-77833311D01*
X144068800Y-77987953D01*
X144068800Y-78145646D01*
X144099561Y-78300289D01*
X144099564Y-78300301D01*
X144159902Y-78445972D01*
X144159909Y-78445985D01*
X144247510Y-78577088D01*
X144247513Y-78577092D01*
X144359006Y-78688585D01*
X144359011Y-78688589D01*
X144490114Y-78776190D01*
X144490127Y-78776197D01*
X144635798Y-78836535D01*
X144635803Y-78836537D01*
X144782862Y-78865789D01*
X144790453Y-78867299D01*
X144790456Y-78867300D01*
X144790458Y-78867300D01*
X144948144Y-78867300D01*
X144948145Y-78867299D01*
X145102797Y-78836537D01*
X145248479Y-78776194D01*
X145377780Y-78689798D01*
X145444457Y-78668920D01*
X145446671Y-78668900D01*
X145995129Y-78668900D01*
X146062168Y-78688585D01*
X146064020Y-78689798D01*
X146193314Y-78776190D01*
X146193327Y-78776197D01*
X146338998Y-78836535D01*
X146339003Y-78836537D01*
X146486062Y-78865789D01*
X146493653Y-78867299D01*
X146493656Y-78867300D01*
X146493658Y-78867300D01*
X146651344Y-78867300D01*
X146733489Y-78850960D01*
X146803081Y-78857187D01*
X146858258Y-78900050D01*
X146881503Y-78965939D01*
X146865435Y-79033936D01*
X146852267Y-79051219D01*
X146852976Y-79051801D01*
X146849110Y-79056511D01*
X146761509Y-79187614D01*
X146761502Y-79187627D01*
X146701164Y-79333298D01*
X146701161Y-79333310D01*
X146670400Y-79487953D01*
X146670400Y-79645646D01*
X146694101Y-79764800D01*
X146687874Y-79834392D01*
X146645011Y-79889569D01*
X146579121Y-79912813D01*
X146511124Y-79896745D01*
X146503593Y-79892093D01*
X146451685Y-79857409D01*
X146451672Y-79857402D01*
X146306001Y-79797064D01*
X146305989Y-79797061D01*
X146151345Y-79766300D01*
X146151342Y-79766300D01*
X145993658Y-79766300D01*
X145993655Y-79766300D01*
X145839010Y-79797061D01*
X145838998Y-79797064D01*
X145693327Y-79857402D01*
X145693314Y-79857409D01*
X145564020Y-79943802D01*
X145545973Y-79949452D01*
X145530064Y-79959677D01*
X145499104Y-79964128D01*
X145497343Y-79964680D01*
X145495129Y-79964700D01*
X145446671Y-79964700D01*
X145379632Y-79945015D01*
X145377780Y-79943802D01*
X145248485Y-79857409D01*
X145248472Y-79857402D01*
X145102801Y-79797064D01*
X145102789Y-79797061D01*
X144948145Y-79766300D01*
X144948142Y-79766300D01*
X144790458Y-79766300D01*
X144790455Y-79766300D01*
X144635810Y-79797061D01*
X144635798Y-79797064D01*
X144490127Y-79857402D01*
X144490114Y-79857409D01*
X144359011Y-79945010D01*
X144359007Y-79945013D01*
X144247513Y-80056507D01*
X144247510Y-80056511D01*
X144159909Y-80187614D01*
X144159902Y-80187627D01*
X144099564Y-80333298D01*
X144099561Y-80333310D01*
X144068800Y-80487953D01*
X144068800Y-80645646D01*
X144090437Y-80754421D01*
X144084210Y-80824012D01*
X144041347Y-80879190D01*
X143975457Y-80902434D01*
X143907460Y-80886366D01*
X143899929Y-80881714D01*
X143850085Y-80848409D01*
X143850072Y-80848402D01*
X143704401Y-80788064D01*
X143704389Y-80788061D01*
X143549745Y-80757300D01*
X143549742Y-80757300D01*
X143392058Y-80757300D01*
X143392055Y-80757300D01*
X143237410Y-80788061D01*
X143237398Y-80788064D01*
X143091727Y-80848402D01*
X143091714Y-80848409D01*
X142960611Y-80936010D01*
X142960607Y-80936013D01*
X142849113Y-81047507D01*
X142849110Y-81047511D01*
X142761509Y-81178614D01*
X142761502Y-81178627D01*
X142701164Y-81324298D01*
X142701161Y-81324310D01*
X142670400Y-81478953D01*
X142670400Y-81636646D01*
X142701161Y-81791289D01*
X142701164Y-81791301D01*
X142761502Y-81936972D01*
X142761509Y-81936985D01*
X142847902Y-82066280D01*
X142853552Y-82084326D01*
X142863777Y-82100236D01*
X142868228Y-82131195D01*
X142868780Y-82132957D01*
X142868800Y-82135171D01*
X142868800Y-82183628D01*
X142849115Y-82250667D01*
X142847902Y-82252519D01*
X142761509Y-82381814D01*
X142761502Y-82381827D01*
X142701164Y-82527498D01*
X142701161Y-82527510D01*
X142670400Y-82682153D01*
X142670400Y-82839846D01*
X142701161Y-82994489D01*
X142701164Y-82994501D01*
X142761502Y-83140172D01*
X142761509Y-83140185D01*
X142849110Y-83271288D01*
X142849113Y-83271292D01*
X142960607Y-83382786D01*
X142960611Y-83382789D01*
X143091714Y-83470390D01*
X143091727Y-83470397D01*
X143237398Y-83530735D01*
X143237403Y-83530737D01*
X143392053Y-83561499D01*
X143392056Y-83561500D01*
X143392058Y-83561500D01*
X143549744Y-83561500D01*
X143549745Y-83561499D01*
X143704397Y-83530737D01*
X143850079Y-83470394D01*
X143981189Y-83382789D01*
X144092689Y-83271289D01*
X144180294Y-83140179D01*
X144218164Y-83048750D01*
X144262003Y-82994350D01*
X144328297Y-82972284D01*
X144395996Y-82989562D01*
X144443607Y-83040699D01*
X144454341Y-83072013D01*
X144474965Y-83175695D01*
X144474968Y-83175705D01*
X144535306Y-83321376D01*
X144535313Y-83321389D01*
X144622914Y-83452492D01*
X144622917Y-83452496D01*
X144734412Y-83563991D01*
X144734415Y-83563993D01*
X144813691Y-83616964D01*
X144858495Y-83670574D01*
X144868800Y-83720065D01*
X144868800Y-84608628D01*
X144849115Y-84675667D01*
X144847902Y-84677519D01*
X144761509Y-84806814D01*
X144761502Y-84806827D01*
X144701164Y-84952498D01*
X144701161Y-84952510D01*
X144670400Y-85107153D01*
X144670400Y-85199878D01*
X144650715Y-85266917D01*
X144597911Y-85312672D01*
X144593852Y-85314439D01*
X144490127Y-85357402D01*
X144490114Y-85357409D01*
X144359011Y-85445010D01*
X144359007Y-85445013D01*
X144247513Y-85556507D01*
X144247510Y-85556511D01*
X144159909Y-85687614D01*
X144159902Y-85687627D01*
X144099564Y-85833298D01*
X144099561Y-85833310D01*
X144068800Y-85987953D01*
X144068800Y-86145646D01*
X144099561Y-86300289D01*
X144099564Y-86300301D01*
X144159902Y-86445972D01*
X144159909Y-86445985D01*
X144247510Y-86577088D01*
X144247513Y-86577092D01*
X144359007Y-86688586D01*
X144359011Y-86688589D01*
X144490114Y-86776190D01*
X144490127Y-86776197D01*
X144635798Y-86836535D01*
X144635803Y-86836537D01*
X144790453Y-86867299D01*
X144790456Y-86867300D01*
X144790458Y-86867300D01*
X144948144Y-86867300D01*
X144948145Y-86867299D01*
X145102797Y-86836537D01*
X145248479Y-86776194D01*
X145344639Y-86711942D01*
X145377780Y-86689798D01*
X145444457Y-86668920D01*
X145446671Y-86668900D01*
X145835024Y-86668900D01*
X145882474Y-86678338D01*
X145963599Y-86711941D01*
X146118249Y-86742703D01*
X146118252Y-86742704D01*
X146118254Y-86742704D01*
X146275940Y-86742704D01*
X146275941Y-86742703D01*
X146430593Y-86711941D01*
X146576275Y-86651598D01*
X146707385Y-86563993D01*
X146818885Y-86452493D01*
X146906490Y-86321383D01*
X146966833Y-86175701D01*
X146997596Y-86021046D01*
X146997596Y-85863362D01*
X146997596Y-85863359D01*
X146997595Y-85863357D01*
X146990023Y-85825291D01*
X146966833Y-85708707D01*
X146958499Y-85688586D01*
X146906493Y-85563031D01*
X146906486Y-85563018D01*
X146818885Y-85431915D01*
X146818882Y-85431911D01*
X146707388Y-85320417D01*
X146707384Y-85320414D01*
X146576281Y-85232813D01*
X146576268Y-85232806D01*
X146430597Y-85172468D01*
X146430588Y-85172465D01*
X146359628Y-85158350D01*
X146297718Y-85125964D01*
X146263144Y-85065248D01*
X146262204Y-85060924D01*
X146240638Y-84952510D01*
X146240637Y-84952503D01*
X146219334Y-84901072D01*
X146180297Y-84806827D01*
X146180290Y-84806814D01*
X146093898Y-84677519D01*
X146073020Y-84610841D01*
X146073000Y-84608628D01*
X146073000Y-83089133D01*
X146072999Y-83089129D01*
X146062180Y-83048754D01*
X146054798Y-83021202D01*
X146056460Y-82951353D01*
X146095621Y-82893490D01*
X146150381Y-82867491D01*
X146151341Y-82867300D01*
X146151342Y-82867300D01*
X146305997Y-82836537D01*
X146451679Y-82776194D01*
X146582789Y-82688589D01*
X146694289Y-82577089D01*
X146781894Y-82445979D01*
X146842237Y-82300297D01*
X146873000Y-82145642D01*
X146873000Y-81987958D01*
X146873000Y-81987955D01*
X146872999Y-81987953D01*
X146862861Y-81936985D01*
X146842237Y-81833303D01*
X146842235Y-81833298D01*
X146781897Y-81687627D01*
X146781890Y-81687614D01*
X146694289Y-81556511D01*
X146694286Y-81556507D01*
X146582792Y-81445013D01*
X146582784Y-81445007D01*
X146545212Y-81419902D01*
X146500406Y-81366290D01*
X146491699Y-81296965D01*
X146521853Y-81233938D01*
X146545212Y-81213698D01*
X146571779Y-81195945D01*
X146582789Y-81188589D01*
X146694289Y-81077089D01*
X146781894Y-80945979D01*
X146842237Y-80800297D01*
X146869477Y-80663354D01*
X146869478Y-80663349D01*
X156495004Y-80663349D01*
X156495004Y-80821042D01*
X156525765Y-80975685D01*
X156525768Y-80975697D01*
X156586106Y-81121368D01*
X156586113Y-81121381D01*
X156673714Y-81252484D01*
X156673717Y-81252488D01*
X156785211Y-81363982D01*
X156785215Y-81363985D01*
X156916318Y-81451586D01*
X156916331Y-81451593D01*
X157048135Y-81506187D01*
X157062007Y-81511933D01*
X157216657Y-81542695D01*
X157216660Y-81542696D01*
X157216662Y-81542696D01*
X157374348Y-81542696D01*
X157374349Y-81542695D01*
X157529001Y-81511933D01*
X157674683Y-81451590D01*
X157805793Y-81363985D01*
X157917293Y-81252485D01*
X158004898Y-81121375D01*
X158065241Y-80975693D01*
X158096004Y-80821038D01*
X158096004Y-80663354D01*
X158096004Y-80663351D01*
X158096003Y-80663349D01*
X158093529Y-80650911D01*
X158065241Y-80508699D01*
X158047008Y-80464680D01*
X158004901Y-80363023D01*
X158004894Y-80363010D01*
X157956073Y-80289945D01*
X157935195Y-80223268D01*
X157953679Y-80155888D01*
X158005658Y-80109197D01*
X158011689Y-80106507D01*
X158025475Y-80100798D01*
X158156585Y-80013193D01*
X158268085Y-79901693D01*
X158355690Y-79770583D01*
X158416033Y-79624901D01*
X158446796Y-79470246D01*
X158446796Y-79312562D01*
X158446796Y-79312559D01*
X158446795Y-79312557D01*
X158444789Y-79302472D01*
X158416033Y-79157907D01*
X158382559Y-79077092D01*
X158355693Y-79012231D01*
X158355686Y-79012218D01*
X158268085Y-78881115D01*
X158268082Y-78881111D01*
X158156588Y-78769617D01*
X158156584Y-78769614D01*
X158025481Y-78682013D01*
X158025468Y-78682006D01*
X157879797Y-78621668D01*
X157879785Y-78621665D01*
X157725141Y-78590904D01*
X157725138Y-78590904D01*
X157567454Y-78590904D01*
X157567451Y-78590904D01*
X157412806Y-78621665D01*
X157412794Y-78621668D01*
X157267123Y-78682006D01*
X157267110Y-78682013D01*
X157136007Y-78769614D01*
X157136003Y-78769617D01*
X157024509Y-78881111D01*
X157024506Y-78881115D01*
X156936905Y-79012218D01*
X156936898Y-79012231D01*
X156876560Y-79157902D01*
X156876557Y-79157912D01*
X156846219Y-79310429D01*
X156817560Y-79365216D01*
X156818650Y-79366053D01*
X156813852Y-79372305D01*
X156813834Y-79372340D01*
X156813795Y-79372379D01*
X156813703Y-79372499D01*
X156734437Y-79509793D01*
X156734437Y-79509794D01*
X156697465Y-79647775D01*
X156693404Y-79662929D01*
X156693404Y-80164824D01*
X156673719Y-80231863D01*
X156672506Y-80233715D01*
X156586113Y-80363010D01*
X156586106Y-80363023D01*
X156525768Y-80508694D01*
X156525765Y-80508706D01*
X156495004Y-80663349D01*
X146869478Y-80663349D01*
X146873000Y-80645645D01*
X146873000Y-80487955D01*
X146849298Y-80368800D01*
X146855525Y-80299208D01*
X146898388Y-80244031D01*
X146964278Y-80220786D01*
X147032275Y-80236854D01*
X147039806Y-80241506D01*
X147091714Y-80276190D01*
X147091727Y-80276197D01*
X147229583Y-80333298D01*
X147237403Y-80336537D01*
X147392053Y-80367299D01*
X147392056Y-80367300D01*
X147392058Y-80367300D01*
X147549744Y-80367300D01*
X147549745Y-80367299D01*
X147704397Y-80336537D01*
X147850079Y-80276194D01*
X147981189Y-80188589D01*
X148092689Y-80077089D01*
X148180294Y-79945979D01*
X148240637Y-79800297D01*
X148261157Y-79697134D01*
X148270976Y-79647775D01*
X148303361Y-79585864D01*
X148304805Y-79584392D01*
X148452700Y-79436498D01*
X148531967Y-79299202D01*
X148573000Y-79146068D01*
X148573000Y-78932871D01*
X148592685Y-78865832D01*
X148593898Y-78863980D01*
X148680290Y-78734685D01*
X148680290Y-78734684D01*
X148680294Y-78734679D01*
X148740637Y-78588997D01*
X148771400Y-78434342D01*
X148771400Y-78276658D01*
X148771400Y-78276655D01*
X148771399Y-78276653D01*
X148759098Y-78214812D01*
X148740637Y-78122003D01*
X148740635Y-78121998D01*
X148680297Y-77976327D01*
X148680290Y-77976314D01*
X148592689Y-77845211D01*
X148592686Y-77845207D01*
X148481192Y-77733713D01*
X148481188Y-77733710D01*
X148350085Y-77646109D01*
X148350072Y-77646102D01*
X148204401Y-77585764D01*
X148204389Y-77585761D01*
X148049745Y-77555000D01*
X148049742Y-77555000D01*
X147892058Y-77555000D01*
X147892055Y-77555000D01*
X147737410Y-77585761D01*
X147737398Y-77585764D01*
X147591727Y-77646102D01*
X147591714Y-77646109D01*
X147460834Y-77733561D01*
X147394156Y-77754439D01*
X147326776Y-77735954D01*
X147285801Y-77692336D01*
X147285279Y-77692686D01*
X147283181Y-77689547D01*
X147282585Y-77688912D01*
X147281896Y-77687623D01*
X147194289Y-77556511D01*
X147194286Y-77556507D01*
X147082792Y-77445013D01*
X147078081Y-77441147D01*
X147079040Y-77439978D01*
X147039018Y-77392091D01*
X147030309Y-77322766D01*
X147031096Y-77318407D01*
X147034699Y-77300297D01*
X147053337Y-77206597D01*
X147053337Y-77048913D01*
X147053337Y-77048910D01*
X147053336Y-77048908D01*
X147041212Y-76987958D01*
X147022574Y-76894258D01*
X147016609Y-76879858D01*
X146962234Y-76748582D01*
X146962227Y-76748569D01*
X146875835Y-76619274D01*
X146854957Y-76552596D01*
X146854937Y-76550383D01*
X146854937Y-76000315D01*
X146874622Y-75933276D01*
X146875835Y-75931424D01*
X146902415Y-75891644D01*
X146928768Y-75852205D01*
X146989111Y-75706523D01*
X147019874Y-75551868D01*
X147019874Y-75475005D01*
X147039559Y-75407966D01*
X147092363Y-75362211D01*
X147119683Y-75353388D01*
X147142945Y-75348760D01*
X147204397Y-75336537D01*
X147350079Y-75276194D01*
X147481189Y-75188589D01*
X147592689Y-75077089D01*
X147680294Y-74945979D01*
X147740637Y-74800297D01*
X147771400Y-74645642D01*
X147771400Y-74487958D01*
X147771400Y-74487955D01*
X147771399Y-74487953D01*
X147740637Y-74333303D01*
X147740635Y-74333298D01*
X147680297Y-74187627D01*
X147680290Y-74187614D01*
X147592689Y-74056511D01*
X147592686Y-74056507D01*
X147481192Y-73945013D01*
X147481188Y-73945010D01*
X147350085Y-73857409D01*
X147350072Y-73857402D01*
X147204401Y-73797064D01*
X147204392Y-73797061D01*
X147171210Y-73790461D01*
X147109299Y-73758075D01*
X147074726Y-73697359D01*
X147071403Y-73668844D01*
X147071403Y-73614955D01*
X147071402Y-73614953D01*
X147040641Y-73460310D01*
X147040640Y-73460303D01*
X147019561Y-73409413D01*
X146980300Y-73314627D01*
X146980293Y-73314614D01*
X146893901Y-73185319D01*
X146873023Y-73118641D01*
X146873003Y-73116428D01*
X146873003Y-72309745D01*
X146863268Y-72273414D01*
X146831970Y-72156610D01*
X146752703Y-72019314D01*
X146640601Y-71907212D01*
X146089789Y-71356400D01*
X146089787Y-71356399D01*
X146089782Y-71356395D01*
X145981536Y-71293900D01*
X145981532Y-71293899D01*
X145952493Y-71277133D01*
X145799359Y-71236100D01*
X144620232Y-71236100D01*
X144485191Y-71272284D01*
X144467094Y-71277134D01*
X144438415Y-71293692D01*
X144438252Y-71293786D01*
X144438055Y-71293901D01*
X144329802Y-71356400D01*
X144327945Y-71358256D01*
X144318849Y-71363573D01*
X144305050Y-71366997D01*
X144280472Y-71378133D01*
X144125512Y-71408957D01*
X144125502Y-71408960D01*
X143979831Y-71469298D01*
X143979818Y-71469305D01*
X143848715Y-71556906D01*
X143848711Y-71556909D01*
X143737217Y-71668403D01*
X143737214Y-71668407D01*
X143649613Y-71799510D01*
X143649606Y-71799523D01*
X143589268Y-71945194D01*
X143589265Y-71945206D01*
X143558504Y-72099849D01*
X143558504Y-72257542D01*
X143589265Y-72412185D01*
X143589268Y-72412197D01*
X143649606Y-72557868D01*
X143649613Y-72557881D01*
X143737214Y-72688984D01*
X143737217Y-72688988D01*
X143848711Y-72800482D01*
X143848715Y-72800485D01*
X143979818Y-72888086D01*
X143979831Y-72888093D01*
X144089682Y-72933594D01*
X144125507Y-72948433D01*
X144232815Y-72969778D01*
X144280157Y-72979195D01*
X144280160Y-72979196D01*
X144280162Y-72979196D01*
X144437848Y-72979196D01*
X144437849Y-72979195D01*
X144592501Y-72948433D01*
X144697349Y-72905003D01*
X144729976Y-72901495D01*
X144762447Y-72896827D01*
X144764534Y-72897780D01*
X144766816Y-72897535D01*
X144796154Y-72912220D01*
X144826003Y-72925852D01*
X144827243Y-72927782D01*
X144829296Y-72928810D01*
X144846036Y-72957025D01*
X144863777Y-72984630D01*
X144864212Y-72987659D01*
X144864948Y-72988899D01*
X144868800Y-73019565D01*
X144868800Y-73116428D01*
X144849115Y-73183467D01*
X144847902Y-73185319D01*
X144761509Y-73314614D01*
X144761502Y-73314627D01*
X144701164Y-73460298D01*
X144701161Y-73460310D01*
X144670400Y-73614953D01*
X144670400Y-73699878D01*
X144650715Y-73766917D01*
X144597911Y-73812672D01*
X144593852Y-73814439D01*
X144490127Y-73857402D01*
X144490114Y-73857409D01*
X144359011Y-73945010D01*
X144359007Y-73945013D01*
X144247513Y-74056507D01*
X144247510Y-74056511D01*
X144159909Y-74187614D01*
X144159902Y-74187627D01*
X144099564Y-74333298D01*
X144099561Y-74333310D01*
X144068800Y-74487953D01*
X144068800Y-74645646D01*
X144099561Y-74800289D01*
X144099564Y-74800301D01*
X144138665Y-74894699D01*
X144146134Y-74964168D01*
X144114859Y-75026647D01*
X144092995Y-75045253D01*
X143960611Y-75133710D01*
X143960607Y-75133713D01*
X143849113Y-75245207D01*
X143849110Y-75245211D01*
X143761509Y-75376314D01*
X143761502Y-75376327D01*
X143701164Y-75521998D01*
X143701161Y-75522010D01*
X143670400Y-75676653D01*
X143670400Y-75834346D01*
X143701161Y-75988989D01*
X143701164Y-75989001D01*
X143761502Y-76134672D01*
X143761509Y-76134685D01*
X143847902Y-76263980D01*
X143853552Y-76282026D01*
X143863777Y-76297936D01*
X143868228Y-76328895D01*
X143868780Y-76330657D01*
X143868800Y-76332871D01*
X143868800Y-76381328D01*
X143849115Y-76448367D01*
X143847902Y-76450219D01*
X143761509Y-76579514D01*
X143761502Y-76579527D01*
X143701164Y-76725198D01*
X143701161Y-76725208D01*
X143690313Y-76779747D01*
X143657928Y-76841658D01*
X143597212Y-76876232D01*
X143527443Y-76872492D01*
X143486419Y-76846641D01*
X143485899Y-76847276D01*
X143481188Y-76843410D01*
X143350085Y-76755809D01*
X143350072Y-76755802D01*
X143204401Y-76695464D01*
X143204389Y-76695461D01*
X143049745Y-76664700D01*
X143049742Y-76664700D01*
X142892058Y-76664700D01*
X142892055Y-76664700D01*
X142737410Y-76695461D01*
X142737398Y-76695464D01*
X142591727Y-76755802D01*
X142591714Y-76755809D01*
X142460611Y-76843410D01*
X142460607Y-76843413D01*
X142349113Y-76954907D01*
X142349110Y-76954911D01*
X142261509Y-77086014D01*
X142261502Y-77086027D01*
X142201164Y-77231698D01*
X142201161Y-77231710D01*
X142170400Y-77386353D01*
X133720527Y-77386353D01*
X133692383Y-77318407D01*
X133680297Y-77289227D01*
X133680290Y-77289214D01*
X133593898Y-77159919D01*
X133573020Y-77093241D01*
X133573000Y-77091028D01*
X133573000Y-76517171D01*
X133592685Y-76450132D01*
X133593898Y-76448280D01*
X133680290Y-76318985D01*
X133680290Y-76318984D01*
X133680294Y-76318979D01*
X133740637Y-76173297D01*
X133771400Y-76018642D01*
X133771400Y-75860958D01*
X133771400Y-75860955D01*
X133771399Y-75860953D01*
X133769658Y-75852200D01*
X133740637Y-75706303D01*
X133727872Y-75675486D01*
X133680297Y-75560627D01*
X133680290Y-75560614D01*
X133592689Y-75429511D01*
X133592686Y-75429507D01*
X133481192Y-75318013D01*
X133481188Y-75318010D01*
X133350085Y-75230409D01*
X133350072Y-75230402D01*
X133204401Y-75170064D01*
X133204389Y-75170061D01*
X133049745Y-75139300D01*
X133049742Y-75139300D01*
X132892058Y-75139300D01*
X132892055Y-75139300D01*
X132737410Y-75170061D01*
X132737398Y-75170064D01*
X132591727Y-75230402D01*
X132591714Y-75230409D01*
X132460611Y-75318010D01*
X132460607Y-75318013D01*
X132349113Y-75429507D01*
X132349110Y-75429511D01*
X132261509Y-75560614D01*
X132261502Y-75560627D01*
X132201164Y-75706298D01*
X132201161Y-75706310D01*
X132170400Y-75860953D01*
X132170400Y-76018646D01*
X132201161Y-76173289D01*
X132201164Y-76173301D01*
X132261502Y-76318972D01*
X132261509Y-76318985D01*
X132347902Y-76448280D01*
X132368780Y-76514957D01*
X132368800Y-76517171D01*
X132368800Y-77091028D01*
X132349115Y-77158067D01*
X132347902Y-77159919D01*
X132261509Y-77289214D01*
X132261502Y-77289227D01*
X132201164Y-77434898D01*
X132201161Y-77434910D01*
X132170400Y-77589553D01*
X132170400Y-77677888D01*
X132150715Y-77744927D01*
X132097911Y-77790682D01*
X132082413Y-77796543D01*
X132080709Y-77797059D01*
X131935027Y-77857402D01*
X131935014Y-77857409D01*
X131803911Y-77945010D01*
X131803907Y-77945013D01*
X131692413Y-78056507D01*
X131692410Y-78056511D01*
X131604809Y-78187614D01*
X131604802Y-78187627D01*
X131544464Y-78333298D01*
X131544461Y-78333310D01*
X131513700Y-78487953D01*
X128383553Y-78487953D01*
X128366164Y-78445972D01*
X128352512Y-78413011D01*
X128352505Y-78412998D01*
X128266113Y-78283703D01*
X128260462Y-78265656D01*
X128250238Y-78249747D01*
X128245786Y-78218785D01*
X128245235Y-78217025D01*
X128245215Y-78214812D01*
X128245215Y-78029483D01*
X128264900Y-77962444D01*
X128317704Y-77916689D01*
X128321729Y-77914936D01*
X128350079Y-77903194D01*
X128481189Y-77815589D01*
X128482828Y-77813949D01*
X128483897Y-77813365D01*
X128485893Y-77811728D01*
X128486203Y-77812106D01*
X128544145Y-77780462D01*
X128613837Y-77785441D01*
X128617965Y-77787065D01*
X128734397Y-77835292D01*
X128737403Y-77836537D01*
X128881018Y-77865104D01*
X128892053Y-77867299D01*
X128892056Y-77867300D01*
X128892058Y-77867300D01*
X129049744Y-77867300D01*
X129049745Y-77867299D01*
X129204397Y-77836537D01*
X129347411Y-77777299D01*
X129350072Y-77776197D01*
X129350072Y-77776196D01*
X129350079Y-77776194D01*
X129481189Y-77688589D01*
X129592689Y-77577089D01*
X129680294Y-77445979D01*
X129682296Y-77441147D01*
X129731330Y-77322766D01*
X129740637Y-77300297D01*
X129771400Y-77145642D01*
X129771400Y-76987958D01*
X129771400Y-76987955D01*
X129771399Y-76987953D01*
X129742648Y-76843413D01*
X129740637Y-76833303D01*
X129708537Y-76755806D01*
X129680297Y-76687627D01*
X129680290Y-76687614D01*
X129593898Y-76558319D01*
X129588247Y-76540272D01*
X129578023Y-76524363D01*
X129573571Y-76493401D01*
X129573020Y-76491641D01*
X129573000Y-76489428D01*
X129573000Y-76390171D01*
X129592685Y-76323132D01*
X129593898Y-76321280D01*
X129680290Y-76191985D01*
X129680290Y-76191984D01*
X129680294Y-76191979D01*
X129740637Y-76046297D01*
X129771400Y-75891642D01*
X129771400Y-75733958D01*
X129771400Y-75733955D01*
X129771399Y-75733953D01*
X129758543Y-75669321D01*
X129740637Y-75579303D01*
X129734713Y-75565000D01*
X129680297Y-75433627D01*
X129680290Y-75433614D01*
X129592689Y-75302511D01*
X129592686Y-75302507D01*
X129481192Y-75191013D01*
X129481188Y-75191010D01*
X129350085Y-75103409D01*
X129350072Y-75103402D01*
X129204401Y-75043064D01*
X129204389Y-75043061D01*
X129049745Y-75012300D01*
X129049742Y-75012300D01*
X128892058Y-75012300D01*
X128892055Y-75012300D01*
X128737410Y-75043061D01*
X128737398Y-75043064D01*
X128591728Y-75103402D01*
X128591712Y-75103411D01*
X128516549Y-75153632D01*
X128449871Y-75174509D01*
X128420674Y-75170449D01*
X128420515Y-75171251D01*
X128259888Y-75139300D01*
X128259885Y-75139300D01*
X128102201Y-75139300D01*
X128102198Y-75139300D01*
X127947553Y-75170061D01*
X127947541Y-75170064D01*
X127801870Y-75230402D01*
X127801857Y-75230409D01*
X127670754Y-75318010D01*
X127670750Y-75318013D01*
X127559256Y-75429507D01*
X127559253Y-75429511D01*
X127471652Y-75560614D01*
X127471645Y-75560627D01*
X127411307Y-75706298D01*
X127411304Y-75706310D01*
X127380543Y-75860953D01*
X127380543Y-76010524D01*
X127376318Y-76042616D01*
X127368800Y-76070673D01*
X127368800Y-76616429D01*
X127363449Y-76634651D01*
X127363085Y-76653639D01*
X127349665Y-76681594D01*
X127349115Y-76683468D01*
X127347811Y-76685457D01*
X127347681Y-76685651D01*
X127294009Y-76730385D01*
X127268864Y-76738240D01*
X127248605Y-76742270D01*
X127248600Y-76742271D01*
X127102927Y-76802610D01*
X127102914Y-76802617D01*
X126971811Y-76890218D01*
X126971807Y-76890221D01*
X126860313Y-77001715D01*
X126860310Y-77001719D01*
X126772709Y-77132822D01*
X126772702Y-77132835D01*
X126712364Y-77278506D01*
X126712361Y-77278518D01*
X126681600Y-77433161D01*
X120185603Y-77433161D01*
X120207780Y-77379622D01*
X120231330Y-77322766D01*
X120240637Y-77300297D01*
X120271400Y-77145642D01*
X120271400Y-76987958D01*
X120271400Y-76987955D01*
X120271399Y-76987953D01*
X120242648Y-76843413D01*
X120240637Y-76833303D01*
X120208537Y-76755806D01*
X120180297Y-76687627D01*
X120180290Y-76687614D01*
X120093898Y-76558319D01*
X120088247Y-76540272D01*
X120078023Y-76524363D01*
X120073571Y-76493401D01*
X120073020Y-76491641D01*
X120073000Y-76489428D01*
X120073000Y-76390171D01*
X120092685Y-76323132D01*
X120093898Y-76321280D01*
X120180290Y-76191985D01*
X120180290Y-76191984D01*
X120180294Y-76191979D01*
X120240637Y-76046297D01*
X120271400Y-75891642D01*
X120271400Y-75733958D01*
X120271400Y-75733955D01*
X120271399Y-75733953D01*
X120258543Y-75669321D01*
X120240637Y-75579303D01*
X120234713Y-75565000D01*
X120180297Y-75433627D01*
X120180290Y-75433614D01*
X120092689Y-75302511D01*
X120092686Y-75302507D01*
X119981192Y-75191013D01*
X119981188Y-75191010D01*
X119850085Y-75103409D01*
X119850072Y-75103402D01*
X119704401Y-75043064D01*
X119704389Y-75043061D01*
X119549745Y-75012300D01*
X119549742Y-75012300D01*
X119392058Y-75012300D01*
X119392055Y-75012300D01*
X119237411Y-75043060D01*
X119237401Y-75043063D01*
X119202110Y-75057681D01*
X119132640Y-75065148D01*
X119070162Y-75033872D01*
X119066979Y-75030800D01*
X118981192Y-74945013D01*
X118981188Y-74945010D01*
X118850085Y-74857409D01*
X118850072Y-74857402D01*
X118704401Y-74797064D01*
X118704389Y-74797061D01*
X118549745Y-74766300D01*
X118549742Y-74766300D01*
X118392058Y-74766300D01*
X118392055Y-74766300D01*
X118237410Y-74797061D01*
X118237398Y-74797064D01*
X118118350Y-74846375D01*
X118048880Y-74853844D01*
X118023446Y-74846375D01*
X117904398Y-74797064D01*
X117904386Y-74797061D01*
X117749742Y-74766300D01*
X117749739Y-74766300D01*
X117592055Y-74766300D01*
X117592052Y-74766300D01*
X117437407Y-74797061D01*
X117437395Y-74797064D01*
X117291724Y-74857402D01*
X117291711Y-74857409D01*
X117160608Y-74945010D01*
X117160604Y-74945013D01*
X117049109Y-75056508D01*
X117037306Y-75074173D01*
X117030612Y-75084191D01*
X116977002Y-75128995D01*
X116927511Y-75139300D01*
X116855341Y-75139300D01*
X116700696Y-75170061D01*
X116700684Y-75170064D01*
X116555013Y-75230402D01*
X116555000Y-75230409D01*
X116423897Y-75318010D01*
X116423893Y-75318013D01*
X116312399Y-75429507D01*
X116312396Y-75429511D01*
X116224795Y-75560614D01*
X116224788Y-75560627D01*
X116164450Y-75706298D01*
X116164447Y-75706310D01*
X116133686Y-75860953D01*
X116133686Y-76018646D01*
X116164447Y-76173289D01*
X116164450Y-76173301D01*
X116224788Y-76318972D01*
X116224795Y-76318985D01*
X116311188Y-76448280D01*
X116316838Y-76466326D01*
X116327063Y-76482236D01*
X116331514Y-76513195D01*
X116332066Y-76514957D01*
X116332086Y-76517171D01*
X116332086Y-76549167D01*
X116312401Y-76616206D01*
X116295767Y-76636848D01*
X116249107Y-76683507D01*
X116249104Y-76683511D01*
X116161503Y-76814614D01*
X116161496Y-76814627D01*
X116101158Y-76960298D01*
X116101155Y-76960310D01*
X116070394Y-77114953D01*
X109266694Y-77114953D01*
X109270730Y-77089469D01*
X109270730Y-77089468D01*
X109277154Y-77048913D01*
X109294200Y-76941287D01*
X109294200Y-76728713D01*
X109260946Y-76518757D01*
X109195257Y-76316588D01*
X109098751Y-76127184D01*
X109098749Y-76127181D01*
X109098748Y-76127179D01*
X108973809Y-75955213D01*
X108823486Y-75804890D01*
X108651520Y-75679951D01*
X108650815Y-75679591D01*
X108642754Y-75675485D01*
X108591959Y-75627512D01*
X108575163Y-75559692D01*
X108597699Y-75493556D01*
X108642754Y-75454515D01*
X108651516Y-75450051D01*
X108675976Y-75432280D01*
X108823486Y-75325109D01*
X108823488Y-75325106D01*
X108823492Y-75325104D01*
X108973804Y-75174792D01*
X108973806Y-75174788D01*
X108973809Y-75174786D01*
X109082786Y-75024789D01*
X109098751Y-75002816D01*
X109195257Y-74813412D01*
X109260946Y-74611243D01*
X109294200Y-74401287D01*
X109294200Y-74188713D01*
X109260946Y-73978757D01*
X109195257Y-73776588D01*
X109098751Y-73587184D01*
X109098749Y-73587181D01*
X109098748Y-73587179D01*
X108973809Y-73415213D01*
X108823486Y-73264890D01*
X108651520Y-73139951D01*
X108650815Y-73139591D01*
X108642754Y-73135485D01*
X108591959Y-73087512D01*
X108575163Y-73019692D01*
X108597699Y-72953556D01*
X108642754Y-72914515D01*
X108651516Y-72910051D01*
X108681748Y-72888086D01*
X108823486Y-72785109D01*
X108823488Y-72785106D01*
X108823492Y-72785104D01*
X108973804Y-72634792D01*
X108973806Y-72634788D01*
X108973809Y-72634786D01*
X109098748Y-72462820D01*
X109098747Y-72462820D01*
X109098751Y-72462816D01*
X109195257Y-72273412D01*
X109260946Y-72071243D01*
X109294200Y-71861287D01*
X109294200Y-71648713D01*
X109260946Y-71438757D01*
X109195257Y-71236588D01*
X109098751Y-71047184D01*
X109098749Y-71047181D01*
X109098748Y-71047179D01*
X108973809Y-70875213D01*
X108823486Y-70724890D01*
X108651520Y-70599951D01*
X108650815Y-70599591D01*
X108642754Y-70595485D01*
X108591959Y-70547512D01*
X108575163Y-70479692D01*
X108597699Y-70413556D01*
X108642754Y-70374515D01*
X108651516Y-70370051D01*
X108673489Y-70354086D01*
X108823486Y-70245109D01*
X108823488Y-70245106D01*
X108823492Y-70245104D01*
X108973804Y-70094792D01*
X108973806Y-70094788D01*
X108973809Y-70094786D01*
X109082786Y-69944789D01*
X109098751Y-69922816D01*
X109195257Y-69733412D01*
X109260946Y-69531243D01*
X109283894Y-69386353D01*
X117670400Y-69386353D01*
X117670400Y-69544046D01*
X117701161Y-69698689D01*
X117701164Y-69698701D01*
X117761502Y-69844372D01*
X117761509Y-69844385D01*
X117847902Y-69973680D01*
X117853552Y-69991726D01*
X117863777Y-70007636D01*
X117868228Y-70038595D01*
X117868780Y-70040357D01*
X117868800Y-70042571D01*
X117868800Y-70091028D01*
X117849115Y-70158067D01*
X117847902Y-70159919D01*
X117761509Y-70289214D01*
X117761502Y-70289227D01*
X117701164Y-70434898D01*
X117701161Y-70434910D01*
X117670400Y-70589553D01*
X117670400Y-70747246D01*
X117701161Y-70901889D01*
X117701164Y-70901901D01*
X117761502Y-71047572D01*
X117761509Y-71047585D01*
X117849110Y-71178688D01*
X117849113Y-71178692D01*
X117960607Y-71290186D01*
X117960611Y-71290189D01*
X118091714Y-71377790D01*
X118091727Y-71377797D01*
X118237398Y-71438135D01*
X118237403Y-71438137D01*
X118392053Y-71468899D01*
X118392056Y-71468900D01*
X118392058Y-71468900D01*
X118549744Y-71468900D01*
X118549745Y-71468899D01*
X118704397Y-71438137D01*
X118817066Y-71391467D01*
X118850072Y-71377797D01*
X118850072Y-71377796D01*
X118850079Y-71377794D01*
X118981189Y-71290189D01*
X119092689Y-71178689D01*
X119180294Y-71047579D01*
X119180459Y-71047182D01*
X119240635Y-70901901D01*
X119240637Y-70901897D01*
X119271400Y-70747242D01*
X119271400Y-70589558D01*
X119271400Y-70589555D01*
X119271399Y-70589553D01*
X119263036Y-70547512D01*
X119240637Y-70434903D01*
X119215624Y-70374516D01*
X119180297Y-70289227D01*
X119180290Y-70289214D01*
X119093898Y-70159919D01*
X119088247Y-70141872D01*
X119078023Y-70125963D01*
X119073571Y-70095001D01*
X119073020Y-70093241D01*
X119073000Y-70091028D01*
X119073000Y-70042571D01*
X119092685Y-69975532D01*
X119093898Y-69973680D01*
X119180290Y-69844385D01*
X119180290Y-69844384D01*
X119180294Y-69844379D01*
X119240637Y-69698697D01*
X119271400Y-69544042D01*
X119271400Y-69386358D01*
X119271400Y-69386355D01*
X119271399Y-69386353D01*
X119670400Y-69386353D01*
X119670400Y-69544046D01*
X119701161Y-69698689D01*
X119701164Y-69698701D01*
X119761502Y-69844372D01*
X119761509Y-69844385D01*
X119847902Y-69973680D01*
X119853552Y-69991726D01*
X119863777Y-70007636D01*
X119868228Y-70038595D01*
X119868780Y-70040357D01*
X119868800Y-70042571D01*
X119868800Y-70091028D01*
X119849115Y-70158067D01*
X119847902Y-70159919D01*
X119761509Y-70289214D01*
X119761502Y-70289227D01*
X119701164Y-70434898D01*
X119701161Y-70434910D01*
X119670400Y-70589553D01*
X119670400Y-70747246D01*
X119701161Y-70901889D01*
X119701164Y-70901901D01*
X119761502Y-71047572D01*
X119761509Y-71047585D01*
X119849110Y-71178688D01*
X119849113Y-71178692D01*
X119960607Y-71290186D01*
X119960611Y-71290189D01*
X120091714Y-71377790D01*
X120091727Y-71377797D01*
X120237398Y-71438135D01*
X120237403Y-71438137D01*
X120392053Y-71468899D01*
X120392056Y-71468900D01*
X120392058Y-71468900D01*
X120549744Y-71468900D01*
X120549745Y-71468899D01*
X120704397Y-71438137D01*
X120850079Y-71377794D01*
X120851203Y-71377042D01*
X120851882Y-71376829D01*
X120855446Y-71374925D01*
X120855807Y-71375600D01*
X120917878Y-71356160D01*
X120985259Y-71374640D01*
X120988973Y-71377027D01*
X120990121Y-71377794D01*
X120990123Y-71377795D01*
X120990125Y-71377796D01*
X121135798Y-71438135D01*
X121135803Y-71438137D01*
X121290453Y-71468899D01*
X121290456Y-71468900D01*
X121290458Y-71468900D01*
X121448144Y-71468900D01*
X121448145Y-71468899D01*
X121602797Y-71438137D01*
X121715466Y-71391467D01*
X121748472Y-71377797D01*
X121748472Y-71377796D01*
X121748479Y-71377794D01*
X121879589Y-71290189D01*
X121991089Y-71178689D01*
X122078694Y-71047579D01*
X122078859Y-71047182D01*
X122139035Y-70901901D01*
X122139037Y-70901897D01*
X122169800Y-70747242D01*
X122169800Y-70589558D01*
X122169800Y-70589555D01*
X122169799Y-70589553D01*
X122161436Y-70547512D01*
X122139037Y-70434903D01*
X122114024Y-70374516D01*
X122082439Y-70298261D01*
X122080812Y-70290084D01*
X122078023Y-70285744D01*
X122073000Y-70250809D01*
X122073000Y-70042571D01*
X122092685Y-69975532D01*
X122093898Y-69973680D01*
X122180290Y-69844385D01*
X122180290Y-69844384D01*
X122180294Y-69844379D01*
X122240637Y-69698697D01*
X122271400Y-69544042D01*
X122271400Y-69529204D01*
X147185533Y-69529204D01*
X147212452Y-69664531D01*
X147212455Y-69664541D01*
X147265255Y-69792013D01*
X147265262Y-69792026D01*
X147341919Y-69906750D01*
X147341922Y-69906754D01*
X147439488Y-70004320D01*
X147439492Y-70004323D01*
X147554216Y-70080980D01*
X147554229Y-70080987D01*
X147662812Y-70125963D01*
X147681706Y-70133789D01*
X147681710Y-70133789D01*
X147681711Y-70133790D01*
X147817038Y-70160709D01*
X147817041Y-70160709D01*
X147955029Y-70160709D01*
X148049726Y-70141872D01*
X148090362Y-70133789D01*
X148217845Y-70080984D01*
X148332576Y-70004323D01*
X148430148Y-69906751D01*
X148506809Y-69792020D01*
X148559614Y-69664537D01*
X148568423Y-69620250D01*
X148586534Y-69529204D01*
X150185533Y-69529204D01*
X150212452Y-69664531D01*
X150212455Y-69664541D01*
X150265255Y-69792013D01*
X150265262Y-69792026D01*
X150341919Y-69906750D01*
X150341922Y-69906754D01*
X150439488Y-70004320D01*
X150439492Y-70004323D01*
X150554216Y-70080980D01*
X150554229Y-70080987D01*
X150662812Y-70125963D01*
X150681706Y-70133789D01*
X150681710Y-70133789D01*
X150681711Y-70133790D01*
X150817038Y-70160709D01*
X150817041Y-70160709D01*
X150955029Y-70160709D01*
X151049726Y-70141872D01*
X151090362Y-70133789D01*
X151217845Y-70080984D01*
X151332576Y-70004323D01*
X151430148Y-69906751D01*
X151506809Y-69792020D01*
X151559614Y-69664537D01*
X151568423Y-69620250D01*
X151586534Y-69529204D01*
X151586534Y-69391213D01*
X151559615Y-69255886D01*
X151559614Y-69255885D01*
X151559614Y-69255881D01*
X151549597Y-69231698D01*
X151506812Y-69128404D01*
X151506805Y-69128391D01*
X151430148Y-69013667D01*
X151430145Y-69013663D01*
X151332579Y-68916097D01*
X151332575Y-68916094D01*
X151217851Y-68839437D01*
X151217838Y-68839430D01*
X151090366Y-68786630D01*
X151090356Y-68786627D01*
X150955029Y-68759709D01*
X150955027Y-68759709D01*
X150817041Y-68759709D01*
X150817039Y-68759709D01*
X150681711Y-68786627D01*
X150681701Y-68786630D01*
X150554229Y-68839430D01*
X150554216Y-68839437D01*
X150439492Y-68916094D01*
X150439488Y-68916097D01*
X150341922Y-69013663D01*
X150341919Y-69013667D01*
X150265262Y-69128391D01*
X150265255Y-69128404D01*
X150212455Y-69255876D01*
X150212452Y-69255886D01*
X150185534Y-69391213D01*
X150185534Y-69391216D01*
X150185534Y-69529202D01*
X150185534Y-69529204D01*
X150185533Y-69529204D01*
X148586534Y-69529204D01*
X148586534Y-69391213D01*
X148559615Y-69255886D01*
X148559614Y-69255885D01*
X148559614Y-69255881D01*
X148549597Y-69231698D01*
X148506812Y-69128404D01*
X148506805Y-69128391D01*
X148430148Y-69013667D01*
X148430145Y-69013663D01*
X148332579Y-68916097D01*
X148332575Y-68916094D01*
X148217851Y-68839437D01*
X148217838Y-68839430D01*
X148090366Y-68786630D01*
X148090356Y-68786627D01*
X147955029Y-68759709D01*
X147955027Y-68759709D01*
X147817041Y-68759709D01*
X147817039Y-68759709D01*
X147681711Y-68786627D01*
X147681701Y-68786630D01*
X147554229Y-68839430D01*
X147554216Y-68839437D01*
X147439492Y-68916094D01*
X147439488Y-68916097D01*
X147341922Y-69013663D01*
X147341919Y-69013667D01*
X147265262Y-69128391D01*
X147265255Y-69128404D01*
X147212455Y-69255876D01*
X147212452Y-69255886D01*
X147185534Y-69391213D01*
X147185534Y-69391216D01*
X147185534Y-69529202D01*
X147185534Y-69529204D01*
X147185533Y-69529204D01*
X122271400Y-69529204D01*
X122271400Y-69386358D01*
X122271400Y-69386355D01*
X122271399Y-69386353D01*
X122240638Y-69231710D01*
X122240637Y-69231703D01*
X122240635Y-69231698D01*
X122180297Y-69086027D01*
X122180290Y-69086014D01*
X122092689Y-68954911D01*
X122092686Y-68954907D01*
X121981192Y-68843413D01*
X121981188Y-68843410D01*
X121850085Y-68755809D01*
X121850072Y-68755802D01*
X121704401Y-68695464D01*
X121704389Y-68695461D01*
X121549745Y-68664700D01*
X121549742Y-68664700D01*
X121392058Y-68664700D01*
X121392055Y-68664700D01*
X121237410Y-68695461D01*
X121237398Y-68695464D01*
X121091727Y-68755802D01*
X121091714Y-68755809D01*
X121039791Y-68790504D01*
X120973114Y-68811382D01*
X120905733Y-68792898D01*
X120902009Y-68790504D01*
X120850085Y-68755809D01*
X120850072Y-68755802D01*
X120704401Y-68695464D01*
X120704389Y-68695461D01*
X120549745Y-68664700D01*
X120549742Y-68664700D01*
X120392058Y-68664700D01*
X120392055Y-68664700D01*
X120237410Y-68695461D01*
X120237398Y-68695464D01*
X120091727Y-68755802D01*
X120091714Y-68755809D01*
X119960611Y-68843410D01*
X119960607Y-68843413D01*
X119849113Y-68954907D01*
X119849110Y-68954911D01*
X119761509Y-69086014D01*
X119761502Y-69086027D01*
X119701164Y-69231698D01*
X119701161Y-69231710D01*
X119670400Y-69386353D01*
X119271399Y-69386353D01*
X119240638Y-69231710D01*
X119240637Y-69231703D01*
X119240635Y-69231698D01*
X119180297Y-69086027D01*
X119180290Y-69086014D01*
X119092689Y-68954911D01*
X119092686Y-68954907D01*
X118981192Y-68843413D01*
X118981188Y-68843410D01*
X118850085Y-68755809D01*
X118850072Y-68755802D01*
X118704401Y-68695464D01*
X118704389Y-68695461D01*
X118549745Y-68664700D01*
X118549742Y-68664700D01*
X118392058Y-68664700D01*
X118392055Y-68664700D01*
X118237410Y-68695461D01*
X118237398Y-68695464D01*
X118091727Y-68755802D01*
X118091714Y-68755809D01*
X117960611Y-68843410D01*
X117960607Y-68843413D01*
X117849113Y-68954907D01*
X117849110Y-68954911D01*
X117761509Y-69086014D01*
X117761502Y-69086027D01*
X117701164Y-69231698D01*
X117701161Y-69231710D01*
X117670400Y-69386353D01*
X109283894Y-69386353D01*
X109294200Y-69321287D01*
X109294200Y-69108713D01*
X109260946Y-68898757D01*
X109195257Y-68696588D01*
X109098751Y-68507184D01*
X109098749Y-68507181D01*
X109098748Y-68507179D01*
X108973809Y-68335213D01*
X108823486Y-68184890D01*
X108651520Y-68059951D01*
X108462114Y-67963444D01*
X108462113Y-67963443D01*
X108462112Y-67963443D01*
X108259943Y-67897754D01*
X108259941Y-67897753D01*
X108259940Y-67897753D01*
X108098657Y-67872208D01*
X108049987Y-67864500D01*
X107837413Y-67864500D01*
X107788742Y-67872208D01*
X107627460Y-67897753D01*
X107425285Y-67963444D01*
X107235879Y-68059951D01*
X107063913Y-68184890D01*
X106913590Y-68335213D01*
X106788649Y-68507182D01*
X106784184Y-68515946D01*
X106736209Y-68566742D01*
X106668388Y-68583536D01*
X106602253Y-68560998D01*
X106563216Y-68515946D01*
X106558750Y-68507182D01*
X106433809Y-68335213D01*
X106283486Y-68184890D01*
X106111520Y-68059951D01*
X105922114Y-67963444D01*
X105922113Y-67963443D01*
X105922112Y-67963443D01*
X105719943Y-67897754D01*
X105719941Y-67897753D01*
X105719940Y-67897753D01*
X105558657Y-67872208D01*
X105509987Y-67864500D01*
X105297413Y-67864500D01*
X105248742Y-67872208D01*
X105087460Y-67897753D01*
X104885285Y-67963444D01*
X104695879Y-68059951D01*
X104523913Y-68184890D01*
X104373590Y-68335213D01*
X104248651Y-68507179D01*
X104152144Y-68696585D01*
X104086453Y-68898760D01*
X104053200Y-69108713D01*
X101471400Y-69108713D01*
X101471400Y-64650065D01*
X111986543Y-64650065D01*
X111986543Y-66200083D01*
X111986544Y-66200100D01*
X111997043Y-66302878D01*
X111997044Y-66302881D01*
X112039124Y-66429868D01*
X112052229Y-66469416D01*
X112144331Y-66618738D01*
X112268387Y-66742794D01*
X112417709Y-66834896D01*
X112584246Y-66890081D01*
X112687034Y-66900582D01*
X113987051Y-66900581D01*
X114089840Y-66890081D01*
X114256377Y-66834896D01*
X114405699Y-66742794D01*
X114529755Y-66618738D01*
X114621857Y-66469416D01*
X114677042Y-66302879D01*
X114687543Y-66200091D01*
X114687542Y-65193795D01*
X116986543Y-65193795D01*
X116986543Y-65656369D01*
X117019797Y-65866325D01*
X117044888Y-65943548D01*
X117085487Y-66068496D01*
X117181994Y-66257902D01*
X117306933Y-66429868D01*
X117457256Y-66580191D01*
X117629222Y-66705130D01*
X117629224Y-66705131D01*
X117629227Y-66705133D01*
X117818631Y-66801639D01*
X118020800Y-66867328D01*
X118230756Y-66900582D01*
X118230757Y-66900582D01*
X118443329Y-66900582D01*
X118443330Y-66900582D01*
X118653286Y-66867328D01*
X118855455Y-66801639D01*
X119044859Y-66705133D01*
X119067634Y-66688586D01*
X119216829Y-66580191D01*
X119216831Y-66580188D01*
X119216835Y-66580186D01*
X119367147Y-66429874D01*
X119486726Y-66265286D01*
X119542054Y-66222622D01*
X119611667Y-66216643D01*
X119673463Y-66249248D01*
X119687356Y-66265281D01*
X119806935Y-66429868D01*
X119806939Y-66429874D01*
X119957256Y-66580191D01*
X120129222Y-66705130D01*
X120129224Y-66705131D01*
X120129227Y-66705133D01*
X120318631Y-66801639D01*
X120520800Y-66867328D01*
X120730756Y-66900582D01*
X120730757Y-66900582D01*
X120943329Y-66900582D01*
X120943330Y-66900582D01*
X121153286Y-66867328D01*
X121355455Y-66801639D01*
X121544859Y-66705133D01*
X121567634Y-66688586D01*
X121716829Y-66580191D01*
X121716831Y-66580188D01*
X121716835Y-66580186D01*
X121867147Y-66429874D01*
X121986726Y-66265286D01*
X122042054Y-66222622D01*
X122111667Y-66216643D01*
X122173463Y-66249248D01*
X122187356Y-66265281D01*
X122306935Y-66429868D01*
X122306939Y-66429874D01*
X122457256Y-66580191D01*
X122629222Y-66705130D01*
X122629224Y-66705131D01*
X122629227Y-66705133D01*
X122818631Y-66801639D01*
X123020800Y-66867328D01*
X123230756Y-66900582D01*
X123230757Y-66900582D01*
X123443329Y-66900582D01*
X123443330Y-66900582D01*
X123653286Y-66867328D01*
X123855455Y-66801639D01*
X124044859Y-66705133D01*
X124067634Y-66688586D01*
X124216829Y-66580191D01*
X124216831Y-66580188D01*
X124216835Y-66580186D01*
X124367147Y-66429874D01*
X124367149Y-66429870D01*
X124367152Y-66429868D01*
X124492091Y-66257902D01*
X124492090Y-66257902D01*
X124492094Y-66257898D01*
X124588600Y-66068494D01*
X124614769Y-65987953D01*
X145670400Y-65987953D01*
X145670400Y-66145646D01*
X145701161Y-66300289D01*
X145701164Y-66300301D01*
X145761502Y-66445972D01*
X145761509Y-66445985D01*
X145849110Y-66577088D01*
X145849113Y-66577092D01*
X145960607Y-66688586D01*
X145960611Y-66688589D01*
X146091714Y-66776190D01*
X146091727Y-66776197D01*
X146233436Y-66834894D01*
X146237403Y-66836537D01*
X146392053Y-66867299D01*
X146392056Y-66867300D01*
X146392058Y-66867300D01*
X146549744Y-66867300D01*
X146549745Y-66867299D01*
X146704397Y-66836537D01*
X146850079Y-66776194D01*
X146941366Y-66715198D01*
X146959412Y-66709547D01*
X146975322Y-66699323D01*
X147006281Y-66694871D01*
X147008043Y-66694320D01*
X147010257Y-66694300D01*
X147223677Y-66694300D01*
X147290716Y-66713985D01*
X147292568Y-66715198D01*
X147383848Y-66776190D01*
X147383861Y-66776197D01*
X147525570Y-66834894D01*
X147529537Y-66836537D01*
X147684187Y-66867299D01*
X147684190Y-66867300D01*
X147684192Y-66867300D01*
X147841878Y-66867300D01*
X147841879Y-66867299D01*
X147996531Y-66836537D01*
X148142213Y-66776194D01*
X148273323Y-66688589D01*
X148384823Y-66577089D01*
X148472428Y-66445979D01*
X148532771Y-66300297D01*
X148563534Y-66145642D01*
X148563534Y-65987958D01*
X148563534Y-65987955D01*
X148563533Y-65987953D01*
X148554700Y-65943547D01*
X148532771Y-65833303D01*
X148532769Y-65833298D01*
X148472431Y-65687627D01*
X148472424Y-65687614D01*
X148384823Y-65556511D01*
X148384820Y-65556507D01*
X148273326Y-65445013D01*
X148273322Y-65445010D01*
X148142219Y-65357409D01*
X148142206Y-65357402D01*
X147996535Y-65297064D01*
X147996523Y-65297061D01*
X147841879Y-65266300D01*
X147841876Y-65266300D01*
X147684192Y-65266300D01*
X147684189Y-65266300D01*
X147529544Y-65297061D01*
X147529532Y-65297064D01*
X147383861Y-65357402D01*
X147383848Y-65357409D01*
X147292568Y-65418402D01*
X147274521Y-65424052D01*
X147258612Y-65434277D01*
X147227652Y-65438728D01*
X147225891Y-65439280D01*
X147223677Y-65439300D01*
X147010257Y-65439300D01*
X146943218Y-65419615D01*
X146941366Y-65418402D01*
X146850085Y-65357409D01*
X146850072Y-65357402D01*
X146704401Y-65297064D01*
X146704389Y-65297061D01*
X146549745Y-65266300D01*
X146549742Y-65266300D01*
X146392058Y-65266300D01*
X146392055Y-65266300D01*
X146237410Y-65297061D01*
X146237398Y-65297064D01*
X146091727Y-65357402D01*
X146091714Y-65357409D01*
X145960611Y-65445010D01*
X145960607Y-65445013D01*
X145849113Y-65556507D01*
X145849110Y-65556511D01*
X145761509Y-65687614D01*
X145761502Y-65687627D01*
X145701164Y-65833298D01*
X145701161Y-65833310D01*
X145670400Y-65987953D01*
X124614769Y-65987953D01*
X124654289Y-65866325D01*
X124687543Y-65656369D01*
X124687543Y-65193795D01*
X124654289Y-64983839D01*
X124588600Y-64781670D01*
X124492094Y-64592266D01*
X124492092Y-64592263D01*
X124492091Y-64592261D01*
X124367152Y-64420295D01*
X124216829Y-64269972D01*
X124044863Y-64145033D01*
X123855457Y-64048526D01*
X123855456Y-64048525D01*
X123855455Y-64048525D01*
X123653286Y-63982836D01*
X123653284Y-63982835D01*
X123653283Y-63982835D01*
X123492000Y-63957290D01*
X123443330Y-63949582D01*
X123230756Y-63949582D01*
X123182085Y-63957290D01*
X123020803Y-63982835D01*
X122818628Y-64048526D01*
X122629222Y-64145033D01*
X122457256Y-64269972D01*
X122306937Y-64420291D01*
X122306933Y-64420296D01*
X122187361Y-64584875D01*
X122132032Y-64627541D01*
X122062418Y-64633520D01*
X122000623Y-64600915D01*
X121986725Y-64584875D01*
X121867152Y-64420296D01*
X121867148Y-64420291D01*
X121716829Y-64269972D01*
X121544863Y-64145033D01*
X121355457Y-64048526D01*
X121355456Y-64048525D01*
X121355455Y-64048525D01*
X121153286Y-63982836D01*
X121153284Y-63982835D01*
X121153283Y-63982835D01*
X120992000Y-63957290D01*
X120943330Y-63949582D01*
X120730756Y-63949582D01*
X120682085Y-63957290D01*
X120520803Y-63982835D01*
X120318628Y-64048526D01*
X120129222Y-64145033D01*
X119957256Y-64269972D01*
X119806937Y-64420291D01*
X119806933Y-64420296D01*
X119687361Y-64584875D01*
X119632032Y-64627541D01*
X119562418Y-64633520D01*
X119500623Y-64600915D01*
X119486725Y-64584875D01*
X119367152Y-64420296D01*
X119367148Y-64420291D01*
X119216829Y-64269972D01*
X119044863Y-64145033D01*
X118855457Y-64048526D01*
X118855456Y-64048525D01*
X118855455Y-64048525D01*
X118653286Y-63982836D01*
X118653284Y-63982835D01*
X118653283Y-63982835D01*
X118492000Y-63957290D01*
X118443330Y-63949582D01*
X118230756Y-63949582D01*
X118182085Y-63957290D01*
X118020803Y-63982835D01*
X117818628Y-64048526D01*
X117629222Y-64145033D01*
X117457256Y-64269972D01*
X117306933Y-64420295D01*
X117181994Y-64592261D01*
X117085487Y-64781667D01*
X117019796Y-64983842D01*
X116986543Y-65193795D01*
X114687542Y-65193795D01*
X114687542Y-64650074D01*
X114677042Y-64547285D01*
X114621857Y-64380748D01*
X114529755Y-64231426D01*
X114405699Y-64107370D01*
X114256377Y-64015268D01*
X114089840Y-63960083D01*
X114089838Y-63960082D01*
X113987053Y-63949582D01*
X112687041Y-63949582D01*
X112687024Y-63949583D01*
X112584246Y-63960082D01*
X112584243Y-63960083D01*
X112417711Y-64015267D01*
X112417706Y-64015269D01*
X112268385Y-64107371D01*
X112144332Y-64231424D01*
X112052230Y-64380745D01*
X112052229Y-64380748D01*
X111997044Y-64547285D01*
X111997044Y-64547286D01*
X111997043Y-64547286D01*
X111986543Y-64650065D01*
X101471400Y-64650065D01*
X101471400Y-57312827D01*
X101491085Y-57245788D01*
X101543889Y-57200033D01*
X101595400Y-57188827D01*
X115201281Y-57188827D01*
X115268320Y-57208512D01*
G37*
%TD.AperFunction*%
%TD*%
M02*
