M48
METRIC
T1C0.300
T2C0.600
T3C0.950
T4C1.000
T5C0.650
T6C0.900
%
G90
G05
T1
X102.971Y93.067
X103.471Y86.567
X103.971Y76.067
X103.971Y102.567
X105.471Y86.567
X108.471Y95.067
X108.971Y86.567
X108.971Y93.067
X109.971Y84.0
X109.971Y90.067
X109.971Y101.067
X110.471Y85.204
X112.971Y94.067
X113.471Y86.067
X114.471Y81.567
X114.971Y67.067
X115.971Y98.668
X116.871Y77.194
X116.934Y75.94
X117.355Y98.761
X117.671Y75.567
X117.671Y77.067
X117.796Y96.391
X118.361Y95.826
X118.471Y69.465
X118.471Y70.668
X118.471Y75.567
X118.471Y77.067
X118.646Y97.242
X119.248Y96.641
X119.471Y75.813
X119.471Y77.067
X120.471Y69.465
X120.471Y70.668
X120.471Y74.567
X120.869Y85.067
X120.971Y78.067
X120.971Y80.067
X121.369Y70.668
X121.471Y69.465
X122.471Y94.215
X122.471Y103.567
X122.572Y86.067
X123.971Y72.567
X124.971Y77.067
X125.471Y91.067
X126.471Y60.067
X126.471Y83.567
X127.482Y77.512
X127.643Y78.792
X127.971Y77.194
X127.971Y83.567
X128.181Y75.94
X128.971Y75.813
X128.971Y77.067
X130.471Y84.77
X130.597Y83.567
X131.57Y80.884
X132.314Y78.567
X132.471Y92.067
X132.778Y96.76
X132.971Y75.94
X132.971Y77.668
X132.971Y84.067
X133.471Y86.067
X133.517Y78.567
X133.971Y81.067
X134.12Y95.417
X134.471Y64.567
X134.471Y100.567
X134.971Y73.067
X136.471Y79.067
X136.471Y103.067
X137.369Y89.668
X137.369Y90.567
X137.471Y57.567
X137.471Y104.194
X137.971Y64.567
X137.971Y66.567
X137.971Y102.94
X138.471Y88.067
X138.471Y106.567
X138.572Y89.067
X138.572Y90.567
X138.971Y73.067
X138.971Y92.067
X138.971Y102.94
X138.971Y104.194
X139.971Y104.194
X141.471Y73.067
X141.471Y85.567
X141.971Y66.567
X142.471Y57.567
X142.471Y64.567
X142.471Y101.71
X142.971Y77.465
X142.971Y78.668
X143.471Y81.558
X143.471Y82.761
X143.471Y92.067
X144.359Y72.179
X144.471Y75.755
X144.471Y76.959
X144.869Y74.567
X144.869Y78.067
X144.869Y80.567
X144.869Y82.067
X144.869Y86.067
X144.971Y87.067
X145.245Y82.942
X145.471Y72.44
X145.471Y73.694
X145.471Y75.755
X145.471Y76.959
X145.471Y85.186
X146.072Y80.567
X146.072Y82.067
X146.197Y85.942
X146.219Y75.473
X146.253Y77.128
X146.271Y73.694
X146.471Y62.067
X146.471Y66.067
X146.471Y98.067
X146.572Y78.067
X146.971Y74.567
X147.471Y79.567
X147.763Y66.067
X147.971Y78.355
X149.971Y86.567
X149.971Y94.067
X156.471Y77.567
X157.296Y80.742
X157.646Y79.391
X158.471Y83.067
X159.971Y75.567
X159.971Y76.567
X159.971Y79.567
X159.971Y80.567
X162.971Y82.567
X162.971Y87.067
T3
X109.254Y102.413
X111.754Y102.413
X113.337Y65.425
X114.254Y102.413
X115.837Y65.425
X116.754Y102.413
X118.337Y65.425
X120.837Y65.425
X123.337Y65.425
T4
X103.397Y98.781
X103.397Y101.321
X103.397Y103.861
X103.397Y106.401
X105.404Y69.215
X105.404Y71.755
X105.404Y74.295
X105.404Y76.835
X107.944Y69.215
X107.944Y71.755
X107.944Y74.295
X107.944Y76.835
X134.512Y107.366
X137.052Y107.366
X139.592Y107.366
X142.132Y107.366
X144.672Y107.366
X147.212Y107.366
X147.999Y61.443
X149.752Y107.366
X150.499Y61.443
X152.292Y107.366
X158.794Y60.731
X158.916Y104.961
X161.294Y60.731
X161.416Y104.961
T5
X106.376Y87.094
X106.376Y92.874
T6
X123.905Y106.469
X126.905Y106.469
X147.886Y69.46
X150.886Y69.46
T2
G00X102.996Y85.664
M15
G01X102.396Y85.664
M16
G05
G00X102.996Y94.304
M15
G01X102.396Y94.304
M16
G05
G00X107.426Y85.664
M15
G01X106.326Y85.664
M16
G05
G00X107.426Y94.304
M15
G01X106.326Y94.304
M16
G05
M30
